<svg width="5449" height="3086" viewBox="0 0 5449 3086" fill="none" xmlns="http://www.w3.org/2000/svg">
<g clip-path="url(#clip0_164_329)">
<path d="M4971.99 2454.79V474.234H5196.44V2454.79H4971.99Z" fill="white"/>
<path fill-rule="evenodd" clip-rule="evenodd" d="M641.812 666.628C575.564 666.628 529.191 653.382 502.692 626.891C476.193 598.508 462.943 563.501 462.943 521.872V476.459C462.943 434.83 476.193 400.77 502.692 374.278C529.191 345.895 575.564 331.703 641.812 331.703C708.06 331.703 754.433 345.895 780.932 374.278C807.431 400.77 820.681 434.83 820.681 476.459V521.872C820.681 563.501 807.431 598.508 780.932 626.891C754.433 653.382 708.06 666.628 641.812 666.628ZM0.15625 2261.78H528.245V1183.21H0.15625V990.2H755.379V2261.78H1249.4V2454.79H0.15625V2261.78ZM2693.43 1461.37V834.091H2670.72L2253.36 1853.06L1836 834.091H1813.29V1461.37V2454.79H1594.67V473.62H1901.3L2250.52 1347.83H2267.56L2616.78 473.62H2912.05V2454.79H2693.43V1461.37ZM4302.82 1892.23H4301.43H3764.92L3812.97 1682.76H4245.36L3967.12 726.233H3941.57L3691.5 1585.92L3587.09 1955.02L3587.24 1955.05L3439.03 2454.79H3192.02L3799.61 473.62H4114.76L4549.82 1892.23H4302.82ZM4345.79 2037.13L4469.66 2454.79H4722.34L4593.17 2037.13H4345.79Z" fill="white"/>
</g>
<defs>
<clipPath id="clip0_164_329">
<rect width="5448.16" height="3085.53" fill="white" transform="translate(0.15625)"/>
</clipPath>
</defs>
</svg>
