<svg width="1440" height="3197" viewBox="0 0 1440 3197" fill="none" xmlns="http://www.w3.org/2000/svg">
<path opacity="0.05" fill-rule="evenodd" clip-rule="evenodd" d="M-35 2810L1513.21 2747.5L1637.83 635.961C1637.83 635.961 1690.76 284.775 1400.72 71.6387C1110.68 -141.498 683.745 827.197 432.731 827.197C181.717 827.197 -35 459.586 -35 459.586L-35 2810Z" fill="#05403D"/>
<path opacity="0.1" fill-rule="evenodd" clip-rule="evenodd" d="M-35.1686 2810L1547.88 2602.73L1591.26 574.777C1591.26 574.777 1643.56 235.505 1356.92 29.5994C1070.27 -176.306 648.335 759.525 400.259 759.525C152.182 759.525 -62 404.385 -62 404.385L-35.1686 2810Z" fill="#73937E"/>
<path opacity="0.05" fill-rule="evenodd" clip-rule="evenodd" d="M1591.55 1436.03C1591.55 1436.03 1112.43 1826 765.999 1754.01C419.569 1682.03 312.556 1876.41 83.588 1880.4C-145.38 1884.4 -116.212 2249.67 -116.212 2249.67L-203.708 3031.2C-203.708 3031.2 -207.491 2868.87 83.5879 3020.71C374.667 3172.55 708.842 2985.09 958.384 2980.74C1207.93 2976.39 1461.59 3132 1461.59 3132L1591.55 1436.03Z" fill="#05403D"/>
<path opacity="0.1" fill-rule="evenodd" clip-rule="evenodd" d="M1572.15 1346.65C1572.15 1346.65 1158.37 1705.83 811.941 1633.85C465.511 1561.86 276.694 1771.15 47.726 1775.14C-181.242 1779.14 -70.27 2129.51 -70.27 2129.51L-159.215 3197C-159.215 3197 -117.543 2919.96 173.537 3071.8C464.616 3223.64 746.467 2937.44 996.009 2933.08C1245.55 2928.73 1507.53 3011.83 1507.53 3011.83L1572.15 1346.65Z" fill="#73937E"/>
</svg>
