<svg width="25" height="24" viewBox="0 0 25 24" fill="none" xmlns="http://www.w3.org/2000/svg">
<path d="M18.1138 9.52596C18.404 9.23041 18.3997 8.75555 18.1041 8.46534C17.8086 8.17513 17.3337 8.17946 17.0435 8.47502L18.1138 9.52596ZM10.7052 16.0005L10.17 16.526C10.311 16.6696 10.5039 16.7505 10.7052 16.7505C10.9064 16.7505 11.0993 16.6696 11.2403 16.526L10.7052 16.0005ZM8.29447 12.475C8.00426 12.1795 7.52941 12.1751 7.23386 12.4653C6.93831 12.7556 6.93398 13.2304 7.22419 13.526L8.29447 12.475ZM17.0435 8.47502L10.17 15.475L11.2403 16.526L18.1138 9.52596L17.0435 8.47502ZM7.22419 13.526L10.17 16.526L11.2403 15.475L8.29447 12.475L7.22419 13.526ZM20.7564 12.0005C20.7564 16.5698 17.1227 20.2505 12.669 20.2505V21.7505C17.9768 21.7505 22.2564 17.3723 22.2564 12.0005H20.7564ZM12.669 20.2505C8.21535 20.2505 4.58168 16.5698 4.58168 12.0005H3.08168C3.08168 17.3723 7.36125 21.7505 12.669 21.7505V20.2505ZM4.58168 12.0005C4.58168 7.43119 8.21535 3.75049 12.669 3.75049V2.25049C7.36125 2.25049 3.08168 6.62867 3.08168 12.0005H4.58168ZM12.669 3.75049C17.1227 3.75049 20.7564 7.43119 20.7564 12.0005H22.2564C22.2564 6.62867 17.9768 2.25049 12.669 2.25049V3.75049Z" fill="#05403D"/>
</svg>
