<svg width="37" height="37" viewBox="0 0 37 37" fill="none" xmlns="http://www.w3.org/2000/svg">
<g filter="url(#filter0_b_332_14)">
<circle cx="18.5" cy="18.5" r="18.5" fill="black" fill-opacity="0.17"/>
</g>
<path d="M18.6208 26.8166C17.3087 26.8163 16.0147 26.5099 14.8418 25.9217C13.6689 25.3336 12.6494 24.4799 11.8642 23.4286C11.0791 22.3773 10.5501 21.1574 10.3192 19.8657C10.0882 18.5741 10.1618 17.2464 10.534 15.9882C10.8623 14.8782 11.4168 13.8481 12.1624 12.9627C12.2222 12.8827 12.2978 12.8157 12.3844 12.766C12.471 12.7162 12.5669 12.6846 12.6662 12.6731C12.7654 12.6617 12.866 12.6706 12.9617 12.6994C13.0574 12.7282 13.1462 12.7762 13.2226 12.8405C13.2991 12.9048 13.3617 12.984 13.4064 13.0734C13.4512 13.1627 13.4773 13.2602 13.4831 13.36C13.4888 13.4597 13.4742 13.5596 13.44 13.6535C13.4058 13.7474 13.3528 13.8333 13.2843 13.906C13.0891 14.139 12.9089 14.3842 12.7447 14.64C12.5599 14.9282 12.3963 15.2296 12.2554 15.5417C12.1302 15.8198 12.0236 16.1059 11.9361 16.3981C11.8502 16.6899 11.7832 16.987 11.7354 17.2875C11.6796 17.6482 11.6514 18.0126 11.651 18.3775C11.6533 19.8501 12.1227 21.284 12.9915 22.473C13.8603 23.6619 15.0839 24.5447 16.4862 24.9943C17.8884 25.4438 19.3972 25.437 20.7953 24.9749C22.1935 24.5127 23.4091 23.619 24.2672 22.4223C25.1253 21.2255 25.5817 19.7875 25.5708 18.3149C25.5599 16.8424 25.0822 15.4113 24.2064 14.2274C23.3306 13.0435 22.1019 12.1679 20.6971 11.7266C19.2922 11.2852 17.7835 11.3008 16.3881 11.7711C16.294 11.8182 16.1908 11.8446 16.0857 11.8483C15.9805 11.8521 15.8757 11.8332 15.7785 11.7929C15.6813 11.7527 15.5939 11.692 15.5222 11.6149C15.4504 11.5379 15.3961 11.4464 15.3629 11.3465C15.3297 11.2467 15.3183 11.1408 15.3296 11.0362C15.3408 10.9316 15.3745 10.8306 15.4282 10.7401C15.4819 10.6496 15.5545 10.5717 15.6409 10.5117C15.7274 10.4517 15.8257 10.411 15.9293 10.3923C17.0882 10.0018 18.3182 9.86791 19.534 10.0001C20.7498 10.1323 21.9223 10.5273 22.9702 11.1578C24.0181 11.7883 24.9163 12.6391 25.6026 13.6514C26.2889 14.6636 26.7468 15.813 26.9445 17.0199C27.1423 18.2268 27.0752 19.4622 26.7479 20.6405C26.4206 21.8189 25.841 22.9119 25.0491 23.8439C24.2572 24.7759 23.2722 25.5245 22.1621 26.0378C21.0521 26.5511 19.8437 26.8169 18.6208 26.8166Z" fill="white"/>
<path d="M18.6211 10.6848V26.0827C20.663 26.0827 22.6212 25.2715 24.0651 23.8277C25.5089 22.3839 26.32 20.4256 26.32 18.3837C26.32 16.3419 25.5089 14.3836 24.0651 12.9398C22.6212 11.4959 20.663 10.6848 18.6211 10.6848Z" fill="white"/>
<path d="M18.6191 8.20985C18.4244 8.20985 18.2377 8.13251 18.1 7.99485C17.9624 7.85719 17.885 7.67048 17.885 7.4758V4.6901C17.885 4.49542 17.9624 4.30871 18.1 4.17105C18.2377 4.03339 18.4244 3.95605 18.6191 3.95605C18.8138 3.95605 19.0005 4.03339 19.1381 4.17105C19.2758 4.30871 19.3531 4.49542 19.3531 4.6901V7.4758C19.3531 7.67048 19.2758 7.85719 19.1381 7.99485C19.0005 8.13251 18.8138 8.20985 18.6191 8.20985ZM18.6191 32.8102C18.4244 32.8102 18.2377 32.7328 18.1 32.5952C17.9624 32.4575 17.885 32.2708 17.885 32.0761V29.2917C17.885 29.097 17.9624 28.9103 18.1 28.7726C18.2377 28.6349 18.4244 28.5576 18.6191 28.5576C18.8138 28.5576 19.0005 28.6349 19.1381 28.7726C19.2758 28.9103 19.3531 29.097 19.3531 29.2917V32.0774C19.3528 32.2718 19.2753 32.4582 19.1377 32.5956C19.0001 32.733 18.8135 32.8102 18.6191 32.8102ZM32.3127 19.1178H29.527C29.3323 19.1178 29.1456 19.0404 29.008 18.9028C28.8703 18.7651 28.793 18.5784 28.793 18.3837C28.793 18.189 28.8703 18.0023 29.008 17.8647C29.1456 17.727 29.3323 17.6497 29.527 17.6497H32.3127C32.5074 17.6497 32.6941 17.727 32.8318 17.8647C32.9694 18.0023 33.0468 18.189 33.0468 18.3837C33.0468 18.5784 32.9694 18.7651 32.8318 18.9028C32.6941 19.0404 32.5074 19.1178 32.3127 19.1178ZM7.71116 19.1178H4.92545C4.73077 19.1178 4.54406 19.0404 4.4064 18.9028C4.26874 18.7651 4.19141 18.5784 4.19141 18.3837C4.19141 18.189 4.26874 18.0023 4.4064 17.8647C4.54406 17.727 4.73077 17.6497 4.92545 17.6497H7.71116C7.90584 17.6497 8.09254 17.727 8.23021 17.8647C8.36787 18.0023 8.4452 18.189 8.4452 18.3837C8.4452 18.5784 8.36787 18.7651 8.23021 18.9028C8.09254 19.0404 7.90584 19.1178 7.71116 19.1178Z" fill="white"/>
<path d="M26.332 10.6714L28.3017 8.70166L26.332 10.6714Z" fill="white"/>
<path d="M26.3298 11.4102C26.185 11.4098 26.0435 11.3666 25.9232 11.286C25.8028 11.2054 25.709 11.091 25.6536 10.9572C25.5981 10.8234 25.5835 10.6762 25.6115 10.5341C25.6396 10.392 25.709 10.2614 25.8111 10.1586L27.7808 8.18895C27.92 8.05929 28.104 7.9887 28.2942 7.99206C28.4843 7.99541 28.6658 8.07245 28.8003 8.20694C28.9348 8.34143 29.0118 8.52287 29.0152 8.71304C29.0185 8.90321 28.9479 9.08725 28.8183 9.22641L26.8486 11.1961C26.7108 11.3333 26.5243 11.4103 26.3298 11.4102Z" fill="white"/>
<path d="M8.9375 28.0659L10.9072 26.0962L8.9375 28.0659Z" fill="white"/>
<path d="M8.93653 28.7998C8.79144 28.7997 8.64965 28.7566 8.52905 28.6759C8.40846 28.5953 8.31447 28.4807 8.25897 28.3466C8.20346 28.2126 8.18892 28.0651 8.21719 27.9228C8.24546 27.7805 8.31527 27.6497 8.4178 27.5471L10.3875 25.5774C10.4547 25.5053 10.5357 25.4474 10.6258 25.4073C10.7158 25.3672 10.813 25.3456 10.9116 25.3439C11.0101 25.3421 11.108 25.3603 11.1994 25.3972C11.2908 25.4341 11.3739 25.489 11.4436 25.5587C11.5133 25.6285 11.5682 25.7115 11.6051 25.8029C11.6421 25.8943 11.6602 25.9922 11.6585 26.0907C11.6567 26.1893 11.6351 26.2865 11.595 26.3765C11.5549 26.4666 11.4971 26.5476 11.4249 26.6148L9.45525 28.5845C9.31772 28.7222 9.13114 28.7997 8.93653 28.7998Z" fill="white"/>
<path d="M26.332 26.0962L28.3017 28.0659L26.332 26.0962Z" fill="white"/>
<path d="M28.3002 28.7998C28.1056 28.7997 27.919 28.7222 27.7814 28.5845L25.8118 26.6148C25.7396 26.5476 25.6818 26.4666 25.6417 26.3765C25.6016 26.2865 25.58 26.1893 25.5782 26.0907C25.5765 25.9922 25.5946 25.8943 25.6316 25.8029C25.6685 25.7115 25.7234 25.6285 25.7931 25.5587C25.8628 25.489 25.9459 25.4341 26.0373 25.3972C26.1287 25.3603 26.2266 25.3421 26.3251 25.3439C26.4237 25.3456 26.5209 25.3672 26.6109 25.4073C26.701 25.4474 26.782 25.5053 26.8492 25.5774L28.8189 27.5471C28.9214 27.6497 28.9912 27.7805 29.0195 27.9228C29.0478 28.0651 29.0332 28.2126 28.9777 28.3466C28.9222 28.4807 28.8282 28.5953 28.7076 28.6759C28.5871 28.7566 28.4453 28.7997 28.3002 28.7998Z" fill="white"/>
<path d="M8.9375 8.70166L10.9072 10.6714L8.9375 8.70166Z" fill="white"/>
<path d="M10.912 11.4102C10.7175 11.4103 10.531 11.3333 10.3933 11.1961L8.42357 9.22641C8.29391 9.08725 8.22332 8.90321 8.22668 8.71304C8.23003 8.52287 8.30707 8.34143 8.44156 8.20694C8.57605 8.07245 8.75749 7.99541 8.94766 7.99206C9.13783 7.9887 9.32187 8.05929 9.46102 8.18895L11.4307 10.1586C11.5328 10.2614 11.6023 10.392 11.6303 10.5341C11.6583 10.6762 11.6437 10.8234 11.5882 10.9572C11.5328 11.091 11.439 11.2054 11.3186 11.286C11.1983 11.3666 11.0568 11.4098 10.912 11.4102Z" fill="white"/>
<defs>
<filter id="filter0_b_332_14" x="-17" y="-17" width="71" height="71" filterUnits="userSpaceOnUse" color-interpolation-filters="sRGB">
<feFlood flood-opacity="0" result="BackgroundImageFix"/>
<feGaussianBlur in="BackgroundImageFix" stdDeviation="8.5"/>
<feComposite in2="SourceAlpha" operator="in" result="effect1_backgroundBlur_332_14"/>
<feBlend mode="normal" in="SourceGraphic" in2="effect1_backgroundBlur_332_14" result="shape"/>
</filter>
</defs>
</svg>
