<svg width="471" height="476" viewBox="0 0 471 476" fill="none" xmlns="http://www.w3.org/2000/svg">
<ellipse opacity="0.203246" cx="364.457" cy="339.281" rx="41.5089" ry="41.1821" stroke="#00BCD4" stroke-width="10"/>
<path opacity="0.201409" fill-rule="evenodd" clip-rule="evenodd" d="M92.525 58.524L121.941 38.9135V78.1345L92.525 58.524Z" stroke="#05403D" stroke-width="6"/>
<path fill-rule="evenodd" clip-rule="evenodd" d="M317.497 82.3967C317.021 81.3757 315.81 80.9329 314.792 81.4076C313.774 81.8821 313.334 83.0946 313.811 84.1156C314.287 85.1367 315.498 85.5794 316.516 85.1048C317.534 84.6301 317.973 83.4178 317.497 82.3967Z" fill="#05403D"/>
<path fill-rule="evenodd" clip-rule="evenodd" d="M301.502 89.855C301.026 88.834 299.815 88.3911 298.797 88.8658C297.78 89.3404 297.34 90.5529 297.816 91.5739C298.292 92.5949 299.504 93.0376 300.521 92.5631C301.539 92.0884 301.978 90.876 301.502 89.855Z" fill="#05403D"/>
<path fill-rule="evenodd" clip-rule="evenodd" d="M285.508 97.3132C285.032 96.2922 283.821 95.8494 282.803 96.3241C281.785 96.7987 281.346 98.0111 281.822 99.0321C282.298 100.053 283.509 100.496 284.527 100.021C285.545 99.5466 285.984 98.3343 285.508 97.3132Z" fill="#05403D"/>
<path fill-rule="evenodd" clip-rule="evenodd" d="M269.514 104.771C269.038 103.75 267.826 103.308 266.809 103.782C265.791 104.257 265.351 105.469 265.827 106.49C266.304 107.511 267.515 107.954 268.533 107.48C269.55 107.005 269.99 105.793 269.514 104.771Z" fill="#05403D"/>
<path fill-rule="evenodd" clip-rule="evenodd" d="M253.519 112.23C253.043 111.209 251.832 110.766 250.814 111.241C249.796 111.715 249.357 112.928 249.833 113.949C250.309 114.97 251.52 115.412 252.538 114.938C253.556 114.463 253.995 113.251 253.519 112.23Z" fill="#05403D"/>
<path fill-rule="evenodd" clip-rule="evenodd" d="M237.525 119.688C237.049 118.667 235.837 118.224 234.82 118.699C233.802 119.174 233.363 120.386 233.839 121.407C234.315 122.428 235.526 122.871 236.544 122.396C237.562 121.922 238.001 120.709 237.525 119.688Z" fill="#05403D"/>
<path fill-rule="evenodd" clip-rule="evenodd" d="M221.531 127.146C221.054 126.125 219.843 125.683 218.825 126.157C217.807 126.632 217.368 127.844 217.844 128.865C218.32 129.886 219.531 130.329 220.549 129.855C221.567 129.38 222.007 128.168 221.531 127.146Z" fill="#05403D"/>
<path fill-rule="evenodd" clip-rule="evenodd" d="M205.536 134.605C205.06 133.584 203.849 133.141 202.831 133.616C201.813 134.09 201.374 135.303 201.85 136.324C202.326 137.345 203.537 137.788 204.555 137.313C205.573 136.838 206.012 135.626 205.536 134.605Z" fill="#05403D"/>
<path fill-rule="evenodd" clip-rule="evenodd" d="M189.542 142.063C189.066 141.042 187.854 140.599 186.836 141.074C185.819 141.548 185.379 142.761 185.856 143.782C186.332 144.803 187.543 145.246 188.56 144.771C189.578 144.297 190.018 143.084 189.542 142.063Z" fill="#05403D"/>
<path fill-rule="evenodd" clip-rule="evenodd" d="M173.547 149.521C173.071 148.5 171.86 148.057 170.842 148.532C169.824 149.007 169.385 150.219 169.861 151.24C170.337 152.261 171.548 152.704 172.566 152.229C173.584 151.755 174.024 150.542 173.547 149.521Z" fill="#05403D"/>
<path fill-rule="evenodd" clip-rule="evenodd" d="M157.553 156.98C157.077 155.959 155.866 155.516 154.848 155.991C153.83 156.465 153.391 157.678 153.867 158.699C154.343 159.72 155.554 160.162 156.572 159.688C157.59 159.213 158.029 158.001 157.553 156.98Z" fill="#05403D"/>
<path fill-rule="evenodd" clip-rule="evenodd" d="M141.559 164.438C141.082 163.417 139.871 162.974 138.853 163.449C137.836 163.923 137.396 165.136 137.872 166.157C138.348 167.178 139.56 167.621 140.577 167.146C141.595 166.671 142.035 165.459 141.559 164.438Z" fill="#05403D"/>
<path fill-rule="evenodd" clip-rule="evenodd" d="M125.564 171.896C125.088 170.875 123.877 170.433 122.859 170.907C121.841 171.382 121.402 172.594 121.878 173.615C122.354 174.636 123.565 175.079 124.583 174.605C125.601 174.13 126.04 172.918 125.564 171.896Z" fill="#05403D"/>
<path fill-rule="evenodd" clip-rule="evenodd" d="M109.57 179.355C109.094 178.334 107.882 177.891 106.865 178.366C105.847 178.84 105.407 180.053 105.884 181.074C106.36 182.095 107.571 182.538 108.589 182.063C109.606 181.588 110.046 180.376 109.57 179.355Z" fill="#05403D"/>
<path fill-rule="evenodd" clip-rule="evenodd" d="M93.5755 186.813C93.0994 185.792 91.8881 185.349 90.8704 185.824C89.8524 186.298 89.4132 187.511 89.8893 188.532C90.3654 189.553 91.5765 189.996 92.5944 189.521C93.6122 189.046 94.0516 187.834 93.5755 186.813Z" fill="#05403D"/>
<path fill-rule="evenodd" clip-rule="evenodd" d="M80.1053 193.094C79.6291 192.073 78.4178 191.63 77.4001 192.105C76.3821 192.58 75.9429 193.792 76.419 194.813C76.8952 195.834 78.1062 196.277 79.1242 195.802C80.1419 195.328 80.5814 194.115 80.1053 193.094Z" fill="#05403D"/>
<path fill-rule="evenodd" clip-rule="evenodd" d="M66.635 199.375C66.1589 198.354 64.9476 197.911 63.9296 198.386C62.9119 198.861 62.4727 200.073 62.9488 201.094C63.4249 202.115 64.6359 202.558 65.6537 202.083C66.6716 201.609 67.1111 200.396 66.635 199.375Z" fill="#05403D"/>
<path fill-rule="evenodd" clip-rule="evenodd" d="M324.977 98.439C324.501 97.4179 323.29 96.9751 322.272 97.4498C321.255 97.9244 320.815 99.1369 321.291 100.158C321.767 101.179 322.979 101.622 323.996 101.147C325.014 100.672 325.454 99.46 324.977 98.439Z" fill="#05403D"/>
<path fill-rule="evenodd" clip-rule="evenodd" d="M308.983 105.897C308.507 104.876 307.296 104.433 306.278 104.908C305.26 105.383 304.821 106.595 305.297 107.616C305.773 108.637 306.984 109.08 308.002 108.605C309.02 108.131 309.459 106.918 308.983 105.897Z" fill="#05403D"/>
<path fill-rule="evenodd" clip-rule="evenodd" d="M292.989 113.355C292.513 112.334 291.302 111.892 290.284 112.366C289.266 112.841 288.826 114.053 289.303 115.074C289.779 116.095 290.99 116.538 292.008 116.064C293.026 115.589 293.465 114.377 292.989 113.355Z" fill="#05403D"/>
<path fill-rule="evenodd" clip-rule="evenodd" d="M276.994 120.814C276.518 119.793 275.307 119.35 274.289 119.825C273.271 120.299 272.832 121.512 273.308 122.533C273.784 123.554 274.995 123.997 276.013 123.522C277.031 123.047 277.471 121.835 276.994 120.814Z" fill="#05403D"/>
<path fill-rule="evenodd" clip-rule="evenodd" d="M261 128.272C260.524 127.251 259.313 126.808 258.295 127.283C257.277 127.758 256.838 128.97 257.314 129.991C257.79 131.012 259.001 131.455 260.019 130.98C261.037 130.506 261.476 129.293 261 128.272Z" fill="#05403D"/>
<path fill-rule="evenodd" clip-rule="evenodd" d="M245.006 135.731C244.529 134.71 243.318 134.267 242.3 134.742C241.282 135.216 240.843 136.429 241.319 137.45C241.796 138.471 243.007 138.913 244.025 138.439C245.042 137.964 245.482 136.752 245.006 135.731Z" fill="#05403D"/>
<path fill-rule="evenodd" clip-rule="evenodd" d="M229.011 143.189C228.535 142.168 227.324 141.725 226.306 142.2C225.288 142.674 224.849 143.887 225.325 144.908C225.801 145.929 227.012 146.372 228.03 145.897C229.048 145.422 229.487 144.21 229.011 143.189Z" fill="#05403D"/>
<path fill-rule="evenodd" clip-rule="evenodd" d="M213.017 150.647C212.541 149.626 211.329 149.183 210.312 149.658C209.294 150.133 208.855 151.345 209.331 152.366C209.807 153.387 211.018 153.83 212.036 153.355C213.054 152.881 213.493 151.668 213.017 150.647Z" fill="#05403D"/>
<path fill-rule="evenodd" clip-rule="evenodd" d="M197.023 158.105C196.546 157.084 195.335 156.642 194.317 157.116C193.299 157.591 192.86 158.803 193.336 159.824C193.812 160.845 195.023 161.288 196.041 160.814C197.059 160.339 197.499 159.127 197.023 158.105Z" fill="#05403D"/>
<path fill-rule="evenodd" clip-rule="evenodd" d="M181.028 165.564C180.552 164.543 179.341 164.1 178.323 164.575C177.305 165.049 176.866 166.262 177.342 167.283C177.818 168.304 179.029 168.747 180.047 168.272C181.065 167.797 181.504 166.585 181.028 165.564Z" fill="#05403D"/>
<path fill-rule="evenodd" clip-rule="evenodd" d="M165.034 173.022C164.557 172.001 163.346 171.558 162.328 172.033C161.311 172.508 160.871 173.72 161.347 174.741C161.823 175.762 163.035 176.205 164.052 175.73C165.07 175.256 165.51 174.043 165.034 173.022Z" fill="#05403D"/>
<path fill-rule="evenodd" clip-rule="evenodd" d="M149.039 180.48C148.563 179.459 147.352 179.017 146.334 179.491C145.316 179.966 144.877 181.178 145.353 182.199C145.829 183.22 147.04 183.663 148.058 183.189C149.076 182.714 149.515 181.502 149.039 180.48Z" fill="#05403D"/>
<path fill-rule="evenodd" clip-rule="evenodd" d="M133.045 187.939C132.569 186.918 131.358 186.475 130.34 186.95C129.322 187.424 128.883 188.637 129.359 189.658C129.835 190.679 131.046 191.122 132.064 190.647C133.082 190.172 133.521 188.96 133.045 187.939Z" fill="#05403D"/>
<path fill-rule="evenodd" clip-rule="evenodd" d="M117.051 195.397C116.574 194.376 115.363 193.933 114.345 194.408C113.327 194.882 112.888 196.095 113.364 197.116C113.84 198.137 115.051 198.58 116.069 198.105C117.087 197.63 117.527 196.418 117.051 195.397Z" fill="#05403D"/>
<path fill-rule="evenodd" clip-rule="evenodd" d="M101.056 202.855C100.58 201.834 99.3688 201.392 98.351 201.866C97.3331 202.341 96.8939 203.553 97.37 204.574C97.8461 205.595 99.0571 206.038 100.075 205.564C101.093 205.089 101.532 203.877 101.056 202.855Z" fill="#05403D"/>
<path fill-rule="evenodd" clip-rule="evenodd" d="M87.5859 209.136C87.1098 208.115 85.8985 207.672 84.8808 208.147C83.8628 208.622 83.4236 209.834 83.8997 210.855C84.3758 211.876 85.5869 212.319 86.6049 211.844C87.6226 211.37 88.0621 210.157 87.5859 209.136Z" fill="#05403D"/>
<path fill-rule="evenodd" clip-rule="evenodd" d="M74.1157 215.418C73.6396 214.397 72.4283 213.954 71.4103 214.429C70.3926 214.903 69.9534 216.116 70.4295 217.137C70.9056 218.158 72.1166 218.601 73.1344 218.126C74.1523 217.651 74.5918 216.439 74.1157 215.418Z" fill="#05403D"/>
<path fill-rule="evenodd" clip-rule="evenodd" d="M332.458 114.481C331.982 113.46 330.771 113.018 329.753 113.492C328.735 113.967 328.296 115.179 328.772 116.2C329.248 117.221 330.459 117.664 331.477 117.19C332.495 116.715 332.934 115.502 332.458 114.481Z" fill="#05403D"/>
<path fill-rule="evenodd" clip-rule="evenodd" d="M316.464 121.94C315.988 120.919 314.777 120.476 313.759 120.951C312.741 121.425 312.301 122.638 312.778 123.659C313.254 124.68 314.465 125.122 315.483 124.648C316.501 124.173 316.94 122.961 316.464 121.94Z" fill="#05403D"/>
<path fill-rule="evenodd" clip-rule="evenodd" d="M300.469 129.398C299.993 128.377 298.782 127.934 297.764 128.409C296.746 128.883 296.307 130.096 296.783 131.117C297.259 132.138 298.47 132.581 299.488 132.106C300.506 131.631 300.946 130.419 300.469 129.398Z" fill="#05403D"/>
<path fill-rule="evenodd" clip-rule="evenodd" d="M284.475 136.856C283.999 135.835 282.788 135.393 281.77 135.867C280.752 136.342 280.313 137.554 280.789 138.575C281.265 139.596 282.476 140.039 283.494 139.565C284.512 139.09 284.951 137.877 284.475 136.856Z" fill="#05403D"/>
<path fill-rule="evenodd" clip-rule="evenodd" d="M268.481 144.315C268.004 143.294 266.793 142.851 265.775 143.326C264.758 143.8 264.318 145.013 264.794 146.034C265.27 147.055 266.482 147.497 267.5 147.023C268.517 146.548 268.957 145.336 268.481 144.315Z" fill="#05403D"/>
<path fill-rule="evenodd" clip-rule="evenodd" d="M252.486 151.773C252.01 150.752 250.799 150.309 249.781 150.784C248.763 151.258 248.324 152.471 248.8 153.492C249.276 154.513 250.487 154.956 251.505 154.481C252.523 154.006 252.962 152.794 252.486 151.773Z" fill="#05403D"/>
<path fill-rule="evenodd" clip-rule="evenodd" d="M236.492 159.231C236.016 158.21 234.805 157.767 233.787 158.242C232.769 158.717 232.33 159.929 232.806 160.95C233.282 161.971 234.493 162.414 235.511 161.939C236.529 161.465 236.968 160.252 236.492 159.231Z" fill="#05403D"/>
<path fill-rule="evenodd" clip-rule="evenodd" d="M220.498 166.689C220.021 165.668 218.81 165.226 217.792 165.7C216.774 166.175 216.335 167.387 216.811 168.408C217.287 169.429 218.499 169.872 219.517 169.398C220.534 168.923 220.974 167.71 220.498 166.689Z" fill="#05403D"/>
<path fill-rule="evenodd" clip-rule="evenodd" d="M204.503 174.148C204.027 173.127 202.816 172.684 201.798 173.159C200.78 173.633 200.341 174.846 200.817 175.867C201.293 176.888 202.504 177.331 203.522 176.856C204.54 176.381 204.979 175.169 204.503 174.148Z" fill="#05403D"/>
<path fill-rule="evenodd" clip-rule="evenodd" d="M188.509 181.606C188.033 180.585 186.821 180.142 185.803 180.617C184.786 181.092 184.347 182.304 184.823 183.325C185.299 184.346 186.51 184.789 187.528 184.314C188.546 183.84 188.985 182.627 188.509 181.606Z" fill="#05403D"/>
<path fill-rule="evenodd" clip-rule="evenodd" d="M172.514 189.064C172.038 188.043 170.827 187.601 169.809 188.075C168.791 188.55 168.352 189.762 168.828 190.783C169.304 191.804 170.515 192.247 171.533 191.773C172.551 191.298 172.99 190.085 172.514 189.064Z" fill="#05403D"/>
<path fill-rule="evenodd" clip-rule="evenodd" d="M156.52 196.523C156.044 195.502 154.833 195.059 153.815 195.534C152.797 196.008 152.358 197.221 152.834 198.242C153.31 199.263 154.521 199.705 155.539 199.231C156.557 198.756 156.996 197.544 156.52 196.523Z" fill="#05403D"/>
<path fill-rule="evenodd" clip-rule="evenodd" d="M140.526 203.981C140.049 202.96 138.838 202.517 137.82 202.992C136.802 203.466 136.363 204.679 136.839 205.7C137.315 206.721 138.526 207.164 139.544 206.689C140.562 206.214 141.002 205.002 140.526 203.981Z" fill="#05403D"/>
<path fill-rule="evenodd" clip-rule="evenodd" d="M124.531 211.439C124.055 210.418 122.844 209.976 121.826 210.45C120.808 210.925 120.369 212.137 120.845 213.158C121.321 214.179 122.532 214.622 123.55 214.148C124.568 213.673 125.007 212.46 124.531 211.439Z" fill="#05403D"/>
<path fill-rule="evenodd" clip-rule="evenodd" d="M108.537 218.898C108.061 217.877 106.849 217.434 105.832 217.909C104.814 218.383 104.375 219.596 104.851 220.617C105.327 221.638 106.538 222.08 107.556 221.606C108.574 221.131 109.013 219.919 108.537 218.898Z" fill="#05403D"/>
<path fill-rule="evenodd" clip-rule="evenodd" d="M95.0666 225.179C94.5905 224.158 93.3792 223.715 92.3615 224.19C91.3435 224.664 90.9043 225.877 91.3804 226.898C91.8565 227.919 93.0676 228.362 94.0855 227.887C95.1033 227.412 95.5427 226.2 95.0666 225.179Z" fill="#05403D"/>
<path fill-rule="evenodd" clip-rule="evenodd" d="M81.5964 231.46C81.1203 230.439 79.909 229.996 78.891 230.471C77.8733 230.946 77.434 232.158 77.9102 233.179C78.3863 234.2 79.5973 234.643 80.6151 234.168C81.633 233.694 82.0725 232.481 81.5964 231.46Z" fill="#05403D"/>
<path fill-rule="evenodd" clip-rule="evenodd" d="M339.939 130.524C339.463 129.503 338.252 129.06 337.234 129.535C336.216 130.009 335.776 131.222 336.253 132.243C336.729 133.264 337.94 133.706 338.958 133.232C339.976 132.757 340.415 131.545 339.939 130.524Z" fill="#05403D"/>
<path fill-rule="evenodd" clip-rule="evenodd" d="M323.944 137.982C323.468 136.961 322.257 136.518 321.239 136.993C320.222 137.467 319.782 138.68 320.258 139.701C320.734 140.722 321.946 141.165 322.963 140.69C323.981 140.215 324.421 139.003 323.944 137.982Z" fill="#05403D"/>
<path fill-rule="evenodd" clip-rule="evenodd" d="M307.95 145.44C307.474 144.419 306.263 143.977 305.245 144.451C304.227 144.926 303.788 146.138 304.264 147.159C304.74 148.18 305.951 148.623 306.969 148.149C307.987 147.674 308.426 146.461 307.95 145.44Z" fill="#05403D"/>
<path fill-rule="evenodd" clip-rule="evenodd" d="M291.956 152.899C291.48 151.878 290.268 151.435 289.251 151.91C288.233 152.384 287.793 153.597 288.27 154.618C288.746 155.639 289.957 156.081 290.975 155.607C291.992 155.132 292.432 153.92 291.956 152.899Z" fill="#05403D"/>
<path fill-rule="evenodd" clip-rule="evenodd" d="M275.961 160.357C275.485 159.336 274.274 158.893 273.256 159.368C272.238 159.842 271.799 161.055 272.275 162.076C272.751 163.097 273.962 163.54 274.98 163.065C275.998 162.59 276.437 161.378 275.961 160.357Z" fill="#05403D"/>
<path fill-rule="evenodd" clip-rule="evenodd" d="M259.967 167.815C259.491 166.794 258.28 166.351 257.262 166.826C256.244 167.301 255.805 168.513 256.281 169.534C256.757 170.555 257.968 170.998 258.986 170.523C260.004 170.049 260.443 168.836 259.967 167.815Z" fill="#05403D"/>
<path fill-rule="evenodd" clip-rule="evenodd" d="M243.973 175.274C243.496 174.253 242.285 173.81 241.267 174.285C240.249 174.759 239.81 175.972 240.286 176.993C240.762 178.014 241.974 178.456 242.991 177.982C244.009 177.507 244.449 176.295 243.973 175.274Z" fill="#05403D"/>
<path fill-rule="evenodd" clip-rule="evenodd" d="M227.978 182.732C227.502 181.711 226.291 181.268 225.273 181.743C224.255 182.217 223.816 183.43 224.292 184.451C224.768 185.472 225.979 185.915 226.997 185.44C228.015 184.965 228.454 183.753 227.978 182.732Z" fill="#05403D"/>
<path fill-rule="evenodd" clip-rule="evenodd" d="M211.984 190.19C211.508 189.169 210.296 188.727 209.278 189.201C208.261 189.676 207.822 190.888 208.298 191.909C208.774 192.93 209.985 193.373 211.003 192.899C212.02 192.424 212.46 191.211 211.984 190.19Z" fill="#05403D"/>
<path fill-rule="evenodd" clip-rule="evenodd" d="M195.99 197.648C195.513 196.627 194.302 196.184 193.284 196.659C192.266 197.134 191.827 198.346 192.303 199.367C192.779 200.388 193.99 200.831 195.008 200.356C196.026 199.882 196.466 198.669 195.99 197.648Z" fill="#05403D"/>
<path fill-rule="evenodd" clip-rule="evenodd" d="M179.995 205.107C179.519 204.086 178.308 203.643 177.29 204.118C176.272 204.592 175.833 205.805 176.309 206.826C176.785 207.847 177.996 208.289 179.014 207.815C180.032 207.34 180.471 206.128 179.995 205.107Z" fill="#05403D"/>
<path fill-rule="evenodd" clip-rule="evenodd" d="M164.001 212.565C163.524 211.544 162.313 211.101 161.295 211.576C160.278 212.051 159.838 213.263 160.314 214.284C160.79 215.305 162.002 215.748 163.019 215.273C164.037 214.799 164.477 213.586 164.001 212.565Z" fill="#05403D"/>
<path fill-rule="evenodd" clip-rule="evenodd" d="M148.006 220.024C147.53 219.003 146.319 218.56 145.301 219.035C144.283 219.509 143.844 220.722 144.32 221.743C144.796 222.764 146.007 223.206 147.025 222.732C148.043 222.257 148.482 221.045 148.006 220.024Z" fill="#05403D"/>
<path fill-rule="evenodd" clip-rule="evenodd" d="M132.012 227.482C131.536 226.461 130.324 226.018 129.307 226.493C128.289 226.967 127.85 228.18 128.326 229.201C128.802 230.222 130.013 230.664 131.031 230.19C132.048 229.715 132.488 228.503 132.012 227.482Z" fill="#05403D"/>
<path fill-rule="evenodd" clip-rule="evenodd" d="M116.018 234.94C115.541 233.919 114.33 233.476 113.312 233.951C112.294 234.425 111.855 235.638 112.331 236.659C112.807 237.68 114.018 238.122 115.036 237.648C116.054 237.173 116.494 235.961 116.018 234.94Z" fill="#05403D"/>
<path fill-rule="evenodd" clip-rule="evenodd" d="M102.547 241.221C102.071 240.2 100.86 239.758 99.8422 240.232C98.8242 240.707 98.385 241.919 98.8611 242.94C99.3372 243.961 100.548 244.404 101.566 243.93C102.584 243.455 103.023 242.242 102.547 241.221Z" fill="#05403D"/>
<path fill-rule="evenodd" clip-rule="evenodd" d="M89.0771 247.502C88.6009 246.481 87.3896 246.039 86.3717 246.513C85.3539 246.988 84.9147 248.2 85.3908 249.221C85.867 250.242 87.078 250.685 88.0957 250.211C89.1137 249.736 89.5532 248.523 89.0771 247.502Z" fill="#05403D"/>
<path fill-rule="evenodd" clip-rule="evenodd" d="M347.419 146.566C346.943 145.545 345.732 145.102 344.714 145.577C343.697 146.052 343.257 147.264 343.733 148.285C344.209 149.306 345.421 149.749 346.438 149.274C347.456 148.8 347.896 147.587 347.419 146.566Z" fill="#05403D"/>
<path fill-rule="evenodd" clip-rule="evenodd" d="M331.425 154.024C330.949 153.003 329.738 152.561 328.72 153.035C327.702 153.51 327.263 154.722 327.739 155.743C328.215 156.764 329.426 157.207 330.444 156.733C331.462 156.258 331.901 155.045 331.425 154.024Z" fill="#05403D"/>
<path fill-rule="evenodd" clip-rule="evenodd" d="M315.431 161.483C314.955 160.462 313.744 160.019 312.726 160.494C311.708 160.968 311.268 162.181 311.745 163.202C312.221 164.223 313.432 164.666 314.45 164.191C315.468 163.716 315.907 162.504 315.431 161.483Z" fill="#05403D"/>
<path fill-rule="evenodd" clip-rule="evenodd" d="M299.436 168.941C298.96 167.92 297.749 167.477 296.731 167.952C295.713 168.427 295.274 169.639 295.75 170.66C296.226 171.681 297.437 172.124 298.455 171.649C299.473 171.175 299.913 169.962 299.436 168.941Z" fill="#05403D"/>
<path fill-rule="evenodd" clip-rule="evenodd" d="M283.442 176.399C282.966 175.378 281.755 174.936 280.737 175.41C279.719 175.885 279.28 177.097 279.756 178.118C280.232 179.139 281.443 179.582 282.461 179.108C283.479 178.633 283.918 177.42 283.442 176.399Z" fill="#05403D"/>
<path fill-rule="evenodd" clip-rule="evenodd" d="M267.448 183.858C266.971 182.837 265.76 182.394 264.742 182.868C263.724 183.343 263.285 184.556 263.761 185.577C264.237 186.598 265.449 187.04 266.467 186.566C267.484 186.091 267.924 184.879 267.448 183.858Z" fill="#05403D"/>
<path fill-rule="evenodd" clip-rule="evenodd" d="M251.453 191.316C250.977 190.295 249.766 189.852 248.748 190.327C247.73 190.801 247.291 192.014 247.767 193.035C248.243 194.056 249.454 194.499 250.472 194.024C251.49 193.549 251.929 192.337 251.453 191.316Z" fill="#05403D"/>
<path fill-rule="evenodd" clip-rule="evenodd" d="M235.459 198.774C234.983 197.753 233.771 197.31 232.754 197.785C231.736 198.259 231.297 199.472 231.773 200.493C232.249 201.514 233.46 201.957 234.478 201.482C235.496 201.007 235.935 199.795 235.459 198.774Z" fill="#05403D"/>
<path fill-rule="evenodd" clip-rule="evenodd" d="M219.465 206.232C218.988 205.211 217.777 204.768 216.759 205.243C215.741 205.718 215.302 206.93 215.778 207.951C216.254 208.972 217.465 209.415 218.483 208.94C219.501 208.466 219.941 207.253 219.465 206.232Z" fill="#05403D"/>
<path fill-rule="evenodd" clip-rule="evenodd" d="M203.47 213.691C202.994 212.67 201.783 212.227 200.765 212.702C199.747 213.176 199.308 214.389 199.784 215.41C200.26 216.431 201.471 216.873 202.489 216.399C203.507 215.924 203.946 214.712 203.47 213.691Z" fill="#05403D"/>
<path fill-rule="evenodd" clip-rule="evenodd" d="M187.476 221.149C186.999 220.128 185.788 219.685 184.77 220.16C183.753 220.635 183.313 221.847 183.789 222.868C184.265 223.889 185.477 224.332 186.494 223.857C187.512 223.383 187.952 222.17 187.476 221.149Z" fill="#05403D"/>
<path fill-rule="evenodd" clip-rule="evenodd" d="M171.481 228.608C171.005 227.587 169.794 227.144 168.776 227.618C167.758 228.093 167.319 229.306 167.795 230.327C168.271 231.348 169.482 231.79 170.5 231.316C171.518 230.841 171.957 229.629 171.481 228.608Z" fill="#05403D"/>
<path fill-rule="evenodd" clip-rule="evenodd" d="M155.487 236.066C155.011 235.045 153.8 234.602 152.782 235.076C151.764 235.551 151.325 236.764 151.801 237.785C152.277 238.806 153.488 239.248 154.506 238.774C155.524 238.299 155.963 237.087 155.487 236.066Z" fill="#05403D"/>
<path fill-rule="evenodd" clip-rule="evenodd" d="M139.493 243.524C139.016 242.503 137.805 242.06 136.787 242.535C135.769 243.009 135.33 244.222 135.806 245.243C136.282 246.264 137.493 246.706 138.511 246.232C139.529 245.757 139.969 244.545 139.493 243.524Z" fill="#05403D"/>
<path fill-rule="evenodd" clip-rule="evenodd" d="M123.498 250.982C123.022 249.961 121.811 249.519 120.793 249.993C119.775 250.468 119.336 251.68 119.812 252.701C120.288 253.722 121.499 254.165 122.517 253.691C123.535 253.216 123.974 252.003 123.498 250.982Z" fill="#05403D"/>
<path fill-rule="evenodd" clip-rule="evenodd" d="M110.028 257.264C109.552 256.243 108.341 255.8 107.323 256.274C106.305 256.749 105.866 257.962 106.342 258.983C106.818 260.004 108.029 260.446 109.047 259.972C110.065 259.497 110.504 258.285 110.028 257.264Z" fill="#05403D"/>
<path fill-rule="evenodd" clip-rule="evenodd" d="M96.5577 263.545C96.0816 262.524 94.8703 262.081 93.8523 262.556C92.8346 263.03 92.3954 264.243 92.8715 265.264C93.3476 266.285 94.5587 266.728 95.5764 266.253C96.5944 265.778 97.0338 264.566 96.5577 263.545Z" fill="#05403D"/>
<path fill-rule="evenodd" clip-rule="evenodd" d="M354.9 162.608C354.424 161.587 353.213 161.145 352.195 161.619C351.177 162.094 350.738 163.306 351.214 164.327C351.69 165.348 352.901 165.791 353.919 165.316C354.937 164.842 355.376 163.629 354.9 162.608Z" fill="#05403D"/>
<path fill-rule="evenodd" clip-rule="evenodd" d="M338.906 170.067C338.43 169.046 337.219 168.603 336.201 169.078C335.183 169.552 334.743 170.765 335.22 171.786C335.696 172.807 336.907 173.25 337.925 172.775C338.943 172.3 339.382 171.088 338.906 170.067Z" fill="#05403D"/>
<path fill-rule="evenodd" clip-rule="evenodd" d="M322.911 177.525C322.435 176.504 321.224 176.061 320.206 176.536C319.188 177.011 318.749 178.223 319.225 179.244C319.701 180.265 320.912 180.708 321.93 180.233C322.948 179.759 323.388 178.546 322.911 177.525Z" fill="#05403D"/>
<path fill-rule="evenodd" clip-rule="evenodd" d="M306.917 184.983C306.441 183.962 305.23 183.52 304.212 183.994C303.194 184.469 302.755 185.681 303.231 186.702C303.707 187.723 304.918 188.166 305.936 187.691C306.954 187.217 307.393 186.004 306.917 184.983Z" fill="#05403D"/>
<path fill-rule="evenodd" clip-rule="evenodd" d="M290.923 192.442C290.447 191.421 289.235 190.978 288.218 191.452C287.2 191.927 286.76 193.14 287.236 194.161C287.713 195.182 288.924 195.624 289.942 195.15C290.96 194.675 291.399 193.463 290.923 192.442Z" fill="#05403D"/>
<path fill-rule="evenodd" clip-rule="evenodd" d="M274.928 199.9C274.452 198.879 273.241 198.436 272.223 198.911C271.205 199.385 270.766 200.598 271.242 201.619C271.718 202.64 272.929 203.083 273.947 202.608C274.965 202.133 275.404 200.921 274.928 199.9Z" fill="#05403D"/>
<path fill-rule="evenodd" clip-rule="evenodd" d="M258.934 207.358C258.458 206.337 257.247 205.894 256.229 206.369C255.211 206.844 254.772 208.056 255.248 209.077C255.724 210.098 256.935 210.541 257.953 210.066C258.971 209.592 259.41 208.379 258.934 207.358Z" fill="#05403D"/>
<path fill-rule="evenodd" clip-rule="evenodd" d="M242.94 214.817C242.464 213.796 241.252 213.353 240.234 213.827C239.217 214.302 238.777 215.515 239.253 216.536C239.73 217.557 240.941 217.999 241.959 217.525C242.976 217.05 243.416 215.838 242.94 214.817Z" fill="#05403D"/>
<path fill-rule="evenodd" clip-rule="evenodd" d="M226.945 222.275C226.469 221.254 225.258 220.811 224.24 221.286C223.222 221.76 222.783 222.973 223.259 223.994C223.735 225.015 224.946 225.458 225.964 224.983C226.982 224.508 227.421 223.296 226.945 222.275Z" fill="#05403D"/>
<path fill-rule="evenodd" clip-rule="evenodd" d="M210.951 229.733C210.475 228.712 209.263 228.27 208.245 228.744C207.228 229.219 206.789 230.431 207.265 231.452C207.741 232.473 208.952 232.916 209.97 232.442C210.988 231.967 211.427 230.754 210.951 229.733Z" fill="#05403D"/>
<path fill-rule="evenodd" clip-rule="evenodd" d="M194.956 237.192C194.48 236.171 193.269 235.728 192.251 236.203C191.233 236.677 190.794 237.89 191.27 238.911C191.746 239.932 192.957 240.375 193.975 239.9C194.993 239.425 195.432 238.213 194.956 237.192Z" fill="#05403D"/>
<path fill-rule="evenodd" clip-rule="evenodd" d="M178.962 244.65C178.486 243.629 177.275 243.186 176.257 243.661C175.239 244.135 174.8 245.348 175.276 246.369C175.752 247.39 176.963 247.833 177.981 247.358C178.999 246.883 179.438 245.671 178.962 244.65Z" fill="#05403D"/>
<path fill-rule="evenodd" clip-rule="evenodd" d="M162.968 252.108C162.491 251.087 161.28 250.645 160.262 251.119C159.244 251.594 158.805 252.806 159.281 253.827C159.757 254.848 160.969 255.291 161.987 254.816C163.004 254.342 163.444 253.129 162.968 252.108Z" fill="#05403D"/>
<path fill-rule="evenodd" clip-rule="evenodd" d="M146.973 259.566C146.497 258.545 145.286 258.103 144.268 258.577C143.25 259.052 142.811 260.264 143.287 261.285C143.763 262.306 144.974 262.749 145.992 262.275C147.01 261.8 147.449 260.587 146.973 259.566Z" fill="#05403D"/>
<path fill-rule="evenodd" clip-rule="evenodd" d="M130.979 267.025C130.503 266.004 129.291 265.561 128.274 266.036C127.256 266.51 126.817 267.723 127.293 268.744C127.769 269.765 128.98 270.208 129.998 269.733C131.016 269.258 131.455 268.046 130.979 267.025Z" fill="#05403D"/>
<path fill-rule="evenodd" clip-rule="evenodd" d="M117.509 273.306C117.033 272.285 115.821 271.842 114.803 272.317C113.786 272.792 113.346 274.004 113.822 275.025C114.299 276.046 115.51 276.489 116.528 276.014C117.545 275.54 117.985 274.327 117.509 273.306Z" fill="#05403D"/>
<path fill-rule="evenodd" clip-rule="evenodd" d="M104.038 279.587C103.562 278.566 102.351 278.123 101.333 278.598C100.315 279.072 99.8761 280.285 100.352 281.306C100.828 282.327 102.039 282.77 103.057 282.295C104.075 281.82 104.515 280.608 104.038 279.587Z" fill="#05403D"/>
<path fill-rule="evenodd" clip-rule="evenodd" d="M362.381 178.651C361.905 177.63 360.694 177.187 359.676 177.662C358.658 178.136 358.218 179.349 358.695 180.37C359.171 181.391 360.382 181.834 361.4 181.359C362.418 180.884 362.857 179.672 362.381 178.651Z" fill="#05403D"/>
<path fill-rule="evenodd" clip-rule="evenodd" d="M346.386 186.109C345.91 185.088 344.699 184.646 343.681 185.12C342.664 185.595 342.224 186.807 342.7 187.828C343.176 188.849 344.388 189.292 345.405 188.817C346.423 188.343 346.863 187.13 346.386 186.109Z" fill="#05403D"/>
<path fill-rule="evenodd" clip-rule="evenodd" d="M330.392 193.568C329.916 192.547 328.705 192.104 327.687 192.578C326.669 193.053 326.23 194.266 326.706 195.287C327.182 196.308 328.393 196.75 329.411 196.276C330.429 195.801 330.868 194.589 330.392 193.568Z" fill="#05403D"/>
<path fill-rule="evenodd" clip-rule="evenodd" d="M314.398 201.026C313.922 200.005 312.71 199.562 311.693 200.037C310.675 200.511 310.235 201.724 310.712 202.745C311.188 203.766 312.399 204.209 313.417 203.734C314.434 203.259 314.874 202.047 314.398 201.026Z" fill="#05403D"/>
<path fill-rule="evenodd" clip-rule="evenodd" d="M298.403 208.484C297.927 207.463 296.716 207.021 295.698 207.495C294.68 207.97 294.241 209.182 294.717 210.203C295.193 211.224 296.405 211.667 297.422 211.192C298.44 210.718 298.879 209.505 298.403 208.484Z" fill="#05403D"/>
<path fill-rule="evenodd" clip-rule="evenodd" d="M282.409 215.942C281.933 214.921 280.722 214.479 279.704 214.953C278.686 215.428 278.247 216.64 278.723 217.661C279.199 218.682 280.41 219.125 281.428 218.65C282.446 218.176 282.885 216.963 282.409 215.942Z" fill="#05403D"/>
<path fill-rule="evenodd" clip-rule="evenodd" d="M266.415 223.401C265.939 222.38 264.727 221.937 263.709 222.412C262.691 222.886 262.252 224.099 262.728 225.12C263.205 226.141 264.416 226.584 265.434 226.109C266.451 225.634 266.891 224.422 266.415 223.401Z" fill="#05403D"/>
<path fill-rule="evenodd" clip-rule="evenodd" d="M250.42 230.859C249.944 229.838 248.733 229.395 247.715 229.87C246.697 230.344 246.258 231.557 246.734 232.578C247.21 233.599 248.421 234.042 249.439 233.567C250.457 233.092 250.896 231.88 250.42 230.859Z" fill="#05403D"/>
<path fill-rule="evenodd" clip-rule="evenodd" d="M234.426 238.317C233.95 237.296 232.738 236.854 231.721 237.328C230.703 237.803 230.264 239.015 230.74 240.036C231.216 241.057 232.427 241.5 233.445 241.026C234.463 240.551 234.902 239.338 234.426 238.317Z" fill="#05403D"/>
<path fill-rule="evenodd" clip-rule="evenodd" d="M218.432 245.775C217.955 244.754 216.744 244.312 215.726 244.786C214.708 245.261 214.269 246.473 214.745 247.494C215.221 248.515 216.433 248.958 217.45 248.484C218.468 248.009 218.908 246.796 218.432 245.775Z" fill="#05403D"/>
<path fill-rule="evenodd" clip-rule="evenodd" d="M202.437 253.234C201.961 252.213 200.75 251.77 199.732 252.245C198.714 252.719 198.275 253.932 198.751 254.953C199.227 255.974 200.438 256.417 201.456 255.942C202.474 255.467 202.913 254.255 202.437 253.234Z" fill="#05403D"/>
<path fill-rule="evenodd" clip-rule="evenodd" d="M186.443 260.692C185.966 259.671 184.755 259.229 183.737 259.703C182.72 260.178 182.28 261.39 182.756 262.411C183.232 263.432 184.444 263.875 185.462 263.4C186.479 262.926 186.919 261.713 186.443 260.692Z" fill="#05403D"/>
<path fill-rule="evenodd" clip-rule="evenodd" d="M170.448 268.15C169.972 267.129 168.761 266.687 167.743 267.161C166.725 267.636 166.286 268.848 166.762 269.869C167.238 270.89 168.449 271.333 169.467 270.858C170.485 270.384 170.924 269.171 170.448 268.15Z" fill="#05403D"/>
<path fill-rule="evenodd" clip-rule="evenodd" d="M154.454 275.608C153.978 274.587 152.766 274.145 151.749 274.619C150.731 275.094 150.292 276.306 150.768 277.327C151.244 278.348 152.455 278.791 153.473 278.316C154.491 277.842 154.93 276.629 154.454 275.608Z" fill="#05403D"/>
<path fill-rule="evenodd" clip-rule="evenodd" d="M138.46 283.067C137.983 282.046 136.772 281.604 135.754 282.078C134.736 282.553 134.297 283.765 134.773 284.786C135.249 285.807 136.461 286.25 137.479 285.775C138.496 285.301 138.936 284.088 138.46 283.067Z" fill="#05403D"/>
<path fill-rule="evenodd" clip-rule="evenodd" d="M124.989 289.348C124.513 288.327 123.302 287.884 122.284 288.359C121.266 288.834 120.827 290.046 121.303 291.067C121.779 292.088 122.99 292.531 124.008 292.056C125.026 291.582 125.465 290.369 124.989 289.348Z" fill="#05403D"/>
<path fill-rule="evenodd" clip-rule="evenodd" d="M111.519 295.629C111.043 294.608 109.832 294.166 108.814 294.64C107.796 295.115 107.357 296.327 107.833 297.348C108.309 298.369 109.52 298.812 110.538 298.338C111.556 297.863 111.995 296.65 111.519 295.629Z" fill="#05403D"/>
<path fill-rule="evenodd" clip-rule="evenodd" d="M369.861 194.693C369.385 193.673 368.174 193.229 367.156 193.704C366.139 194.179 365.699 195.391 366.175 196.412C366.651 197.433 367.863 197.876 368.88 197.401C369.898 196.927 370.338 195.714 369.861 194.693Z" fill="#05403D"/>
<path fill-rule="evenodd" clip-rule="evenodd" d="M353.867 202.151C353.391 201.131 352.18 200.687 351.162 201.162C350.144 201.637 349.705 202.85 350.181 203.87C350.657 204.891 351.868 205.334 352.886 204.859C353.904 204.385 354.343 203.172 353.867 202.151Z" fill="#05403D"/>
<path fill-rule="evenodd" clip-rule="evenodd" d="M337.873 209.61C337.397 208.589 336.186 208.146 335.168 208.621C334.15 209.095 333.711 210.308 334.187 211.329C334.663 212.35 335.874 212.793 336.892 212.318C337.91 211.843 338.349 210.631 337.873 209.61Z" fill="#05403D"/>
<path fill-rule="evenodd" clip-rule="evenodd" d="M321.878 217.068C321.402 216.048 320.191 215.605 319.173 216.079C318.155 216.554 317.716 217.766 318.192 218.787C318.668 219.808 319.879 220.251 320.897 219.776C321.915 219.302 322.355 218.089 321.878 217.068Z" fill="#05403D"/>
<path fill-rule="evenodd" clip-rule="evenodd" d="M305.884 224.526C305.408 223.506 304.197 223.062 303.179 223.537C302.161 224.012 301.722 225.225 302.198 226.245C302.674 227.266 303.885 227.709 304.903 227.234C305.921 226.76 306.36 225.547 305.884 224.526Z" fill="#05403D"/>
<path fill-rule="evenodd" clip-rule="evenodd" d="M289.89 231.985C289.414 230.964 288.202 230.521 287.184 230.996C286.167 231.47 285.727 232.683 286.203 233.704C286.68 234.725 287.891 235.168 288.909 234.693C289.926 234.218 290.366 233.006 289.89 231.985Z" fill="#05403D"/>
<path fill-rule="evenodd" clip-rule="evenodd" d="M273.895 239.443C273.419 238.422 272.208 237.979 271.19 238.454C270.172 238.928 269.733 240.141 270.209 241.162C270.685 242.183 271.896 242.626 272.914 242.151C273.932 241.676 274.371 240.464 273.895 239.443Z" fill="#05403D"/>
<path fill-rule="evenodd" clip-rule="evenodd" d="M257.901 246.901C257.425 245.88 256.214 245.437 255.196 245.912C254.178 246.386 253.739 247.599 254.215 248.62C254.691 249.641 255.902 250.084 256.92 249.609C257.938 249.134 258.377 247.922 257.901 246.901Z" fill="#05403D"/>
<path fill-rule="evenodd" clip-rule="evenodd" d="M241.907 254.359C241.431 253.339 240.219 252.896 239.201 253.37C238.183 253.845 237.744 255.058 238.22 256.078C238.696 257.099 239.908 257.542 240.925 257.068C241.943 256.593 242.383 255.38 241.907 254.359Z" fill="#05403D"/>
<path fill-rule="evenodd" clip-rule="evenodd" d="M225.912 261.818C225.436 260.797 224.225 260.354 223.207 260.829C222.189 261.303 221.75 262.516 222.226 263.537C222.702 264.558 223.913 265 224.931 264.526C225.949 264.051 226.388 262.839 225.912 261.818Z" fill="#05403D"/>
<path fill-rule="evenodd" clip-rule="evenodd" d="M209.918 269.276C209.442 268.256 208.23 267.812 207.212 268.287C206.195 268.762 205.755 269.975 206.231 270.995C206.707 272.016 207.919 272.459 208.937 271.984C209.954 271.51 210.394 270.297 209.918 269.276Z" fill="#05403D"/>
<path fill-rule="evenodd" clip-rule="evenodd" d="M193.923 276.734C193.447 275.714 192.236 275.271 191.218 275.745C190.2 276.22 189.761 277.433 190.237 278.453C190.713 279.474 191.924 279.917 192.942 279.442C193.96 278.968 194.399 277.755 193.923 276.734Z" fill="#05403D"/>
<path fill-rule="evenodd" clip-rule="evenodd" d="M177.929 284.192C177.453 283.172 176.242 282.729 175.224 283.203C174.206 283.678 173.767 284.891 174.243 285.911C174.719 286.932 175.93 287.375 176.948 286.9C177.966 286.426 178.405 285.213 177.929 284.192Z" fill="#05403D"/>
<path fill-rule="evenodd" clip-rule="evenodd" d="M161.935 291.651C161.459 290.631 160.247 290.188 159.229 290.662C158.211 291.137 157.772 292.35 158.248 293.37C158.724 294.391 159.936 294.834 160.954 294.359C161.971 293.885 162.411 292.672 161.935 291.651Z" fill="#05403D"/>
<path fill-rule="evenodd" clip-rule="evenodd" d="M145.94 299.109C145.464 298.088 144.253 297.645 143.235 298.12C142.217 298.594 141.778 299.807 142.254 300.828C142.73 301.849 143.941 302.292 144.959 301.817C145.977 301.342 146.416 300.13 145.94 299.109Z" fill="#05403D"/>
<path fill-rule="evenodd" clip-rule="evenodd" d="M132.47 305.391C131.994 304.37 130.783 303.927 129.765 304.402C128.747 304.877 128.308 306.089 128.784 307.11C129.26 308.131 130.471 308.574 131.489 308.099C132.507 307.625 132.946 306.412 132.47 305.391Z" fill="#05403D"/>
<path fill-rule="evenodd" clip-rule="evenodd" d="M119 311.672C118.524 310.651 117.312 310.208 116.294 310.683C115.277 311.157 114.838 312.37 115.314 313.391C115.79 314.412 117.001 314.855 118.018 314.38C119.036 313.905 119.476 312.693 119 311.672Z" fill="#05403D"/>
<path fill-rule="evenodd" clip-rule="evenodd" d="M377.342 210.736C376.866 209.715 375.655 209.272 374.637 209.747C373.619 210.221 373.18 211.434 373.656 212.455C374.132 213.476 375.343 213.919 376.361 213.444C377.379 212.969 377.818 211.757 377.342 210.736Z" fill="#05403D"/>
<path fill-rule="evenodd" clip-rule="evenodd" d="M361.348 218.194C360.872 217.174 359.661 216.73 358.643 217.205C357.625 217.68 357.186 218.892 357.662 219.913C358.138 220.934 359.349 221.377 360.367 220.902C361.385 220.428 361.824 219.215 361.348 218.194Z" fill="#05403D"/>
<path fill-rule="evenodd" clip-rule="evenodd" d="M345.353 225.653C344.877 224.632 343.666 224.189 342.648 224.664C341.63 225.138 341.191 226.351 341.667 227.372C342.143 228.393 343.354 228.836 344.372 228.361C345.39 227.886 345.83 226.674 345.353 225.653Z" fill="#05403D"/>
<path fill-rule="evenodd" clip-rule="evenodd" d="M329.359 233.11C328.883 232.09 327.672 231.647 326.654 232.121C325.636 232.596 325.197 233.808 325.673 234.829C326.149 235.85 327.36 236.293 328.378 235.818C329.396 235.344 329.835 234.131 329.359 233.11Z" fill="#05403D"/>
<path fill-rule="evenodd" clip-rule="evenodd" d="M313.365 240.569C312.889 239.549 311.677 239.105 310.659 239.58C309.642 240.055 309.202 241.267 309.678 242.288C310.154 243.309 311.366 243.752 312.384 243.277C313.401 242.803 313.841 241.59 313.365 240.569Z" fill="#05403D"/>
<path fill-rule="evenodd" clip-rule="evenodd" d="M297.37 248.027C296.894 247.007 295.683 246.564 294.665 247.038C293.647 247.513 293.208 248.725 293.684 249.746C294.16 250.767 295.371 251.21 296.389 250.735C297.407 250.261 297.846 249.048 297.37 248.027Z" fill="#05403D"/>
<path fill-rule="evenodd" clip-rule="evenodd" d="M281.376 255.485C280.9 254.465 279.688 254.022 278.671 254.496C277.653 254.971 277.214 256.183 277.69 257.204C278.166 258.225 279.377 258.668 280.395 258.193C281.413 257.719 281.852 256.506 281.376 255.485Z" fill="#05403D"/>
<path fill-rule="evenodd" clip-rule="evenodd" d="M265.382 262.944C264.906 261.923 263.694 261.48 262.676 261.955C261.658 262.429 261.219 263.642 261.695 264.663C262.171 265.684 263.383 266.127 264.4 265.652C265.418 265.177 265.858 263.965 265.382 262.944Z" fill="#05403D"/>
<path fill-rule="evenodd" clip-rule="evenodd" d="M249.387 270.402C248.911 269.381 247.7 268.938 246.682 269.413C245.664 269.887 245.225 271.1 245.701 272.121C246.177 273.142 247.388 273.585 248.406 273.11C249.424 272.635 249.863 271.423 249.387 270.402Z" fill="#05403D"/>
<path fill-rule="evenodd" clip-rule="evenodd" d="M233.393 277.86C232.917 276.84 231.705 276.397 230.687 276.871C229.67 277.346 229.231 278.558 229.707 279.579C230.183 280.6 231.394 281.043 232.412 280.569C233.429 280.094 233.869 278.881 233.393 277.86Z" fill="#05403D"/>
<path fill-rule="evenodd" clip-rule="evenodd" d="M217.398 285.319C216.922 284.298 215.711 283.855 214.693 284.33C213.675 284.804 213.236 286.017 213.712 287.038C214.188 288.059 215.399 288.502 216.417 288.027C217.435 287.552 217.874 286.34 217.398 285.319Z" fill="#05403D"/>
<path fill-rule="evenodd" clip-rule="evenodd" d="M201.404 292.777C200.928 291.756 199.717 291.313 198.699 291.788C197.681 292.262 197.242 293.475 197.718 294.496C198.194 295.517 199.405 295.96 200.423 295.485C201.441 295.01 201.88 293.798 201.404 292.777Z" fill="#05403D"/>
<path fill-rule="evenodd" clip-rule="evenodd" d="M185.41 300.236C184.934 299.215 183.722 298.772 182.704 299.247C181.686 299.721 181.247 300.934 181.723 301.955C182.199 302.976 183.411 303.419 184.428 302.944C185.446 302.469 185.886 301.257 185.41 300.236Z" fill="#05403D"/>
<path fill-rule="evenodd" clip-rule="evenodd" d="M169.415 307.693C168.939 306.673 167.728 306.23 166.71 306.704C165.692 307.179 165.253 308.391 165.729 309.412C166.205 310.433 167.416 310.876 168.434 310.401C169.452 309.927 169.891 308.714 169.415 307.693Z" fill="#05403D"/>
<path fill-rule="evenodd" clip-rule="evenodd" d="M153.421 315.152C152.945 314.132 151.733 313.689 150.716 314.163C149.698 314.638 149.259 315.85 149.735 316.871C150.211 317.892 151.422 318.335 152.44 317.86C153.457 317.386 153.897 316.173 153.421 315.152Z" fill="#05403D"/>
<path fill-rule="evenodd" clip-rule="evenodd" d="M139.951 321.433C139.475 320.412 138.263 319.969 137.245 320.444C136.228 320.919 135.788 322.131 136.264 323.152C136.741 324.173 137.952 324.616 138.97 324.141C139.987 323.667 140.427 322.454 139.951 321.433Z" fill="#05403D"/>
<path fill-rule="evenodd" clip-rule="evenodd" d="M126.48 327.715C126.004 326.694 124.793 326.251 123.775 326.726C122.757 327.2 122.318 328.413 122.794 329.434C123.27 330.455 124.481 330.898 125.499 330.423C126.517 329.948 126.956 328.736 126.48 327.715Z" fill="#05403D"/>
<path fill-rule="evenodd" clip-rule="evenodd" d="M384.823 226.778C384.347 225.758 383.136 225.314 382.118 225.789C381.1 226.264 380.661 227.476 381.137 228.497C381.613 229.518 382.824 229.961 383.842 229.487C384.86 229.012 385.299 227.799 384.823 226.778Z" fill="#05403D"/>
<path fill-rule="evenodd" clip-rule="evenodd" d="M368.828 234.236C368.352 233.216 367.141 232.772 366.123 233.247C365.106 233.722 364.666 234.934 365.142 235.955C365.618 236.976 366.83 237.419 367.847 236.945C368.865 236.47 369.305 235.257 368.828 234.236Z" fill="#05403D"/>
<path fill-rule="evenodd" clip-rule="evenodd" d="M352.834 241.694C352.358 240.674 351.147 240.23 350.129 240.705C349.111 241.18 348.672 242.392 349.148 243.413C349.624 244.434 350.835 244.877 351.853 244.403C352.871 243.928 353.31 242.715 352.834 241.694Z" fill="#05403D"/>
<path fill-rule="evenodd" clip-rule="evenodd" d="M336.84 249.153C336.364 248.132 335.152 247.689 334.135 248.164C333.117 248.638 332.678 249.851 333.154 250.872C333.63 251.893 334.841 252.336 335.859 251.861C336.876 251.387 337.316 250.174 336.84 249.153Z" fill="#05403D"/>
<path fill-rule="evenodd" clip-rule="evenodd" d="M320.845 256.611C320.369 255.591 319.158 255.147 318.14 255.622C317.122 256.097 316.683 257.309 317.159 258.33C317.635 259.351 318.847 259.794 319.864 259.32C320.882 258.845 321.321 257.632 320.845 256.611Z" fill="#05403D"/>
<path fill-rule="evenodd" clip-rule="evenodd" d="M304.851 264.069C304.375 263.049 303.163 262.606 302.146 263.08C301.128 263.555 300.689 264.767 301.165 265.788C301.641 266.809 302.852 267.252 303.87 266.778C304.888 266.303 305.327 265.09 304.851 264.069Z" fill="#05403D"/>
<path fill-rule="evenodd" clip-rule="evenodd" d="M288.857 271.528C288.381 270.507 287.169 270.064 286.151 270.539C285.133 271.013 284.694 272.226 285.17 273.247C285.646 274.268 286.858 274.711 287.876 274.236C288.893 273.762 289.333 272.549 288.857 271.528Z" fill="#05403D"/>
<path fill-rule="evenodd" clip-rule="evenodd" d="M272.862 278.986C272.386 277.965 271.175 277.522 270.157 277.997C269.139 278.471 268.7 279.684 269.176 280.705C269.652 281.726 270.863 282.169 271.881 281.694C272.899 281.22 273.338 280.007 272.862 278.986Z" fill="#05403D"/>
<path fill-rule="evenodd" clip-rule="evenodd" d="M256.868 286.444C256.392 285.424 255.18 284.981 254.162 285.455C253.145 285.93 252.706 287.142 253.182 288.163C253.658 289.184 254.869 289.627 255.887 289.153C256.905 288.678 257.344 287.465 256.868 286.444Z" fill="#05403D"/>
<path fill-rule="evenodd" clip-rule="evenodd" d="M240.874 293.903C240.398 292.882 239.186 292.439 238.168 292.914C237.15 293.388 236.711 294.601 237.187 295.622C237.663 296.643 238.875 297.086 239.892 296.611C240.91 296.137 241.35 294.924 240.874 293.903Z" fill="#05403D"/>
<path fill-rule="evenodd" clip-rule="evenodd" d="M224.879 301.361C224.403 300.34 223.192 299.897 222.174 300.372C221.156 300.846 220.717 302.059 221.193 303.08C221.669 304.101 222.88 304.544 223.898 304.069C224.916 303.595 225.355 302.382 224.879 301.361Z" fill="#05403D"/>
<path fill-rule="evenodd" clip-rule="evenodd" d="M208.885 308.82C208.409 307.799 207.197 307.356 206.179 307.831C205.162 308.305 204.722 309.518 205.198 310.539C205.674 311.56 206.886 312.003 207.904 311.528C208.922 311.053 209.361 309.841 208.885 308.82Z" fill="#05403D"/>
<path fill-rule="evenodd" clip-rule="evenodd" d="M192.89 316.277C192.414 315.257 191.203 314.813 190.185 315.288C189.167 315.763 188.728 316.975 189.204 317.996C189.68 319.017 190.891 319.46 191.909 318.986C192.927 318.511 193.366 317.298 192.89 316.277Z" fill="#05403D"/>
<path fill-rule="evenodd" clip-rule="evenodd" d="M176.896 323.736C176.42 322.716 175.208 322.273 174.191 322.747C173.173 323.222 172.734 324.434 173.21 325.455C173.686 326.476 174.897 326.919 175.915 326.445C176.933 325.97 177.372 324.757 176.896 323.736Z" fill="#05403D"/>
<path fill-rule="evenodd" clip-rule="evenodd" d="M160.901 331.194C160.425 330.174 159.214 329.731 158.196 330.205C157.178 330.68 156.739 331.892 157.215 332.913C157.691 333.934 158.903 334.377 159.921 333.903C160.938 333.428 161.378 332.215 160.901 331.194Z" fill="#05403D"/>
<path fill-rule="evenodd" clip-rule="evenodd" d="M147.431 337.476C146.955 336.455 145.744 336.012 144.726 336.487C143.708 336.962 143.269 338.174 143.745 339.195C144.221 340.216 145.432 340.659 146.45 340.184C147.468 339.71 147.907 338.497 147.431 337.476Z" fill="#05403D"/>
<path fill-rule="evenodd" clip-rule="evenodd" d="M133.961 343.757C133.485 342.736 132.274 342.293 131.256 342.768C130.238 343.242 129.799 344.455 130.275 345.476C130.751 346.497 131.962 346.94 132.98 346.465C133.998 345.991 134.437 344.778 133.961 343.757Z" fill="#05403D"/>
<path fill-rule="evenodd" clip-rule="evenodd" d="M392.304 242.821C391.827 241.8 390.616 241.356 389.598 241.831C388.581 242.306 388.141 243.518 388.617 244.539C389.093 245.56 390.305 246.003 391.322 245.529C392.34 245.054 392.78 243.841 392.304 242.821Z" fill="#05403D"/>
<path fill-rule="evenodd" clip-rule="evenodd" d="M376.309 250.279C375.833 249.258 374.622 248.815 373.604 249.289C372.586 249.764 372.147 250.977 372.623 251.998C373.099 253.019 374.31 253.461 375.328 252.987C376.346 252.512 376.785 251.3 376.309 250.279Z" fill="#05403D"/>
<path fill-rule="evenodd" clip-rule="evenodd" d="M360.315 257.737C359.839 256.716 358.628 256.273 357.61 256.748C356.592 257.223 356.153 258.435 356.629 259.456C357.105 260.477 358.316 260.92 359.334 260.445C360.352 259.971 360.791 258.758 360.315 257.737Z" fill="#05403D"/>
<path fill-rule="evenodd" clip-rule="evenodd" d="M344.32 265.196C343.844 264.175 342.633 263.732 341.615 264.206C340.597 264.681 340.158 265.894 340.634 266.915C341.11 267.935 342.321 268.379 343.339 267.904C344.357 267.429 344.796 266.217 344.32 265.196Z" fill="#05403D"/>
<path fill-rule="evenodd" clip-rule="evenodd" d="M328.326 272.654C327.85 271.633 326.639 271.189 325.621 271.664C324.603 272.139 324.164 273.351 324.64 274.372C325.116 275.393 326.327 275.836 327.345 275.362C328.363 274.887 328.802 273.674 328.326 272.654Z" fill="#05403D"/>
<path fill-rule="evenodd" clip-rule="evenodd" d="M312.332 280.112C311.856 279.091 310.644 278.648 309.626 279.123C308.608 279.597 308.169 280.81 308.645 281.831C309.121 282.852 310.333 283.295 311.351 282.82C312.368 282.346 312.808 281.133 312.332 280.112Z" fill="#05403D"/>
<path fill-rule="evenodd" clip-rule="evenodd" d="M296.337 287.571C295.861 286.55 294.65 286.107 293.632 286.581C292.614 287.056 292.175 288.268 292.651 289.289C293.127 290.31 294.338 290.753 295.356 290.279C296.374 289.804 296.813 288.591 296.337 287.571Z" fill="#05403D"/>
<path fill-rule="evenodd" clip-rule="evenodd" d="M280.343 295.029C279.867 294.008 278.655 293.565 277.638 294.039C276.62 294.514 276.181 295.726 276.657 296.747C277.133 297.768 278.344 298.211 279.362 297.737C280.38 297.262 280.819 296.049 280.343 295.029Z" fill="#05403D"/>
<path fill-rule="evenodd" clip-rule="evenodd" d="M264.349 302.487C263.872 301.466 262.661 301.023 261.643 301.498C260.625 301.972 260.186 303.185 260.662 304.206C261.138 305.227 262.35 305.67 263.367 305.195C264.385 304.721 264.825 303.508 264.349 302.487Z" fill="#05403D"/>
<path fill-rule="evenodd" clip-rule="evenodd" d="M248.354 309.946C247.878 308.925 246.667 308.482 245.649 308.956C244.631 309.431 244.192 310.643 244.668 311.664C245.144 312.685 246.355 313.128 247.373 312.654C248.391 312.179 248.83 310.966 248.354 309.946Z" fill="#05403D"/>
<path fill-rule="evenodd" clip-rule="evenodd" d="M232.36 317.404C231.884 316.383 230.672 315.94 229.654 316.415C228.637 316.889 228.197 318.102 228.673 319.123C229.149 320.144 230.361 320.587 231.379 320.112C232.397 319.637 232.836 318.425 232.36 317.404Z" fill="#05403D"/>
<path fill-rule="evenodd" clip-rule="evenodd" d="M216.365 324.862C215.889 323.841 214.678 323.398 213.66 323.873C212.642 324.347 212.203 325.56 212.679 326.581C213.155 327.602 214.367 328.045 215.384 327.57C216.402 327.095 216.841 325.883 216.365 324.862Z" fill="#05403D"/>
<path fill-rule="evenodd" clip-rule="evenodd" d="M200.371 332.321C199.895 331.3 198.684 330.857 197.666 331.332C196.648 331.806 196.209 333.019 196.685 334.04C197.161 335.061 198.372 335.504 199.39 335.029C200.408 334.554 200.847 333.342 200.371 332.321Z" fill="#05403D"/>
<path fill-rule="evenodd" clip-rule="evenodd" d="M184.377 339.779C183.901 338.758 182.689 338.315 181.671 338.79C180.653 339.264 180.214 340.477 180.69 341.498C181.166 342.519 182.378 342.962 183.396 342.487C184.413 342.013 184.853 340.8 184.377 339.779Z" fill="#05403D"/>
<path fill-rule="evenodd" clip-rule="evenodd" d="M168.382 347.237C167.906 346.216 166.695 345.773 165.677 346.247C164.659 346.722 164.22 347.934 164.696 348.955C165.172 349.976 166.383 350.419 167.401 349.945C168.419 349.47 168.858 348.257 168.382 347.237Z" fill="#05403D"/>
<path fill-rule="evenodd" clip-rule="evenodd" d="M154.912 353.518C154.436 352.497 153.224 352.054 152.207 352.529C151.189 353.004 150.75 354.216 151.226 355.237C151.702 356.258 152.913 356.701 153.931 356.226C154.949 355.752 155.388 354.539 154.912 353.518Z" fill="#05403D"/>
<path fill-rule="evenodd" clip-rule="evenodd" d="M141.442 359.8C140.966 358.779 139.754 358.336 138.736 358.81C137.719 359.285 137.279 360.497 137.756 361.518C138.232 362.539 139.443 362.982 140.46 362.508C141.478 362.033 141.918 360.82 141.442 359.8Z" fill="#05403D"/>
<path fill-rule="evenodd" clip-rule="evenodd" d="M399.784 258.863C399.308 257.842 398.097 257.399 397.079 257.873C396.061 258.348 395.622 259.561 396.098 260.582C396.574 261.602 397.785 262.045 398.803 261.571C399.821 261.096 400.26 259.884 399.784 258.863Z" fill="#05403D"/>
<path fill-rule="evenodd" clip-rule="evenodd" d="M383.79 266.321C383.314 265.3 382.103 264.857 381.085 265.332C380.067 265.806 379.628 267.019 380.104 268.04C380.58 269.061 381.791 269.504 382.809 269.029C383.827 268.555 384.266 267.342 383.79 266.321Z" fill="#05403D"/>
<path fill-rule="evenodd" clip-rule="evenodd" d="M367.796 273.78C367.319 272.759 366.108 272.316 365.09 272.791C364.072 273.265 363.633 274.478 364.109 275.499C364.585 276.52 365.796 276.963 366.814 276.488C367.832 276.013 368.272 274.801 367.796 273.78Z" fill="#05403D"/>
<path fill-rule="evenodd" clip-rule="evenodd" d="M351.801 281.238C351.325 280.217 350.114 279.774 349.096 280.249C348.078 280.723 347.639 281.936 348.115 282.957C348.591 283.978 349.802 284.421 350.82 283.946C351.838 283.472 352.277 282.259 351.801 281.238Z" fill="#05403D"/>
<path fill-rule="evenodd" clip-rule="evenodd" d="M335.807 288.697C335.331 287.676 334.119 287.232 333.101 287.707C332.084 288.182 331.644 289.394 332.12 290.415C332.596 291.436 333.808 291.879 334.826 291.405C335.844 290.93 336.283 289.717 335.807 288.697Z" fill="#05403D"/>
<path fill-rule="evenodd" clip-rule="evenodd" d="M319.812 296.155C319.336 295.134 318.125 294.691 317.107 295.166C316.089 295.64 315.65 296.853 316.126 297.874C316.602 298.895 317.813 299.338 318.831 298.863C319.849 298.389 320.288 297.176 319.812 296.155Z" fill="#05403D"/>
<path fill-rule="evenodd" clip-rule="evenodd" d="M303.818 303.613C303.342 302.592 302.13 302.149 301.113 302.624C300.095 303.098 299.656 304.311 300.132 305.332C300.608 306.353 301.819 306.796 302.837 306.321C303.855 305.847 304.294 304.634 303.818 303.613Z" fill="#05403D"/>
<path fill-rule="evenodd" clip-rule="evenodd" d="M287.824 311.071C287.348 310.05 286.136 309.607 285.118 310.082C284.1 310.556 283.661 311.769 284.137 312.79C284.613 313.811 285.825 314.254 286.843 313.779C287.86 313.305 288.3 312.092 287.824 311.071Z" fill="#05403D"/>
<path fill-rule="evenodd" clip-rule="evenodd" d="M271.829 318.53C271.353 317.509 270.142 317.066 269.124 317.54C268.106 318.015 267.667 319.227 268.143 320.248C268.619 321.269 269.83 321.712 270.848 321.238C271.866 320.763 272.305 319.55 271.829 318.53Z" fill="#05403D"/>
<path fill-rule="evenodd" clip-rule="evenodd" d="M255.835 325.988C255.359 324.967 254.147 324.524 253.129 324.998C252.112 325.473 251.673 326.685 252.149 327.706C252.625 328.727 253.836 329.17 254.854 328.696C255.872 328.221 256.311 327.008 255.835 325.988Z" fill="#05403D"/>
<path fill-rule="evenodd" clip-rule="evenodd" d="M239.84 333.446C239.364 332.425 238.153 331.982 237.135 332.457C236.117 332.931 235.678 334.144 236.154 335.165C236.63 336.186 237.842 336.629 238.859 336.154C239.877 335.679 240.316 334.467 239.84 333.446Z" fill="#05403D"/>
<path fill-rule="evenodd" clip-rule="evenodd" d="M223.846 340.904C223.37 339.883 222.159 339.44 221.141 339.915C220.123 340.389 219.684 341.602 220.16 342.623C220.636 343.644 221.847 344.087 222.865 343.612C223.883 343.137 224.322 341.925 223.846 340.904Z" fill="#05403D"/>
<path fill-rule="evenodd" clip-rule="evenodd" d="M207.852 348.363C207.376 347.342 206.164 346.899 205.146 347.374C204.128 347.848 203.689 349.061 204.165 350.082C204.641 351.103 205.853 351.546 206.871 351.071C207.889 350.596 208.328 349.384 207.852 348.363Z" fill="#05403D"/>
<path fill-rule="evenodd" clip-rule="evenodd" d="M191.857 355.821C191.381 354.8 190.17 354.357 189.152 354.831C188.134 355.306 187.695 356.518 188.171 357.539C188.647 358.56 189.858 359.003 190.876 358.529C191.894 358.054 192.333 356.841 191.857 355.821Z" fill="#05403D"/>
<path fill-rule="evenodd" clip-rule="evenodd" d="M175.863 363.28C175.387 362.259 174.175 361.816 173.158 362.29C172.14 362.765 171.701 363.977 172.177 364.998C172.653 366.019 173.864 366.462 174.882 365.988C175.9 365.513 176.339 364.3 175.863 363.28Z" fill="#05403D"/>
<path fill-rule="evenodd" clip-rule="evenodd" d="M162.393 369.561C161.917 368.54 160.705 368.097 159.687 368.571C158.669 369.046 158.23 370.259 158.706 371.28C159.182 372.3 160.394 372.744 161.412 372.269C162.429 371.794 162.869 370.582 162.393 369.561Z" fill="#05403D"/>
<path fill-rule="evenodd" clip-rule="evenodd" d="M148.922 375.842C148.446 374.821 147.235 374.378 146.217 374.852C145.199 375.327 144.76 376.539 145.236 377.56C145.712 378.581 146.923 379.024 147.941 378.55C148.959 378.075 149.398 376.862 148.922 375.842Z" fill="#05403D"/>
<path fill-rule="evenodd" clip-rule="evenodd" d="M407.265 274.906C406.789 273.885 405.578 273.442 404.56 273.917C403.542 274.391 403.103 275.604 403.579 276.625C404.055 277.645 405.266 278.088 406.284 277.614C407.302 277.139 407.741 275.927 407.265 274.906Z" fill="#05403D"/>
<path fill-rule="evenodd" clip-rule="evenodd" d="M391.271 282.364C390.794 281.343 389.583 280.9 388.565 281.375C387.548 281.849 387.108 283.062 387.584 284.083C388.06 285.103 389.272 285.546 390.289 285.072C391.307 284.597 391.747 283.385 391.271 282.364Z" fill="#05403D"/>
<path fill-rule="evenodd" clip-rule="evenodd" d="M375.276 289.822C374.8 288.801 373.589 288.358 372.571 288.833C371.553 289.308 371.114 290.52 371.59 291.541C372.066 292.562 373.277 293.005 374.295 292.53C375.313 292.056 375.752 290.843 375.276 289.822Z" fill="#05403D"/>
<path fill-rule="evenodd" clip-rule="evenodd" d="M359.282 297.28C358.806 296.259 357.594 295.817 356.577 296.291C355.559 296.766 355.119 297.978 355.596 298.999C356.072 300.02 357.283 300.463 358.301 299.988C359.318 299.514 359.758 298.301 359.282 297.28Z" fill="#05403D"/>
<path fill-rule="evenodd" clip-rule="evenodd" d="M343.287 304.739C342.811 303.718 341.6 303.275 340.582 303.75C339.564 304.224 339.125 305.437 339.601 306.458C340.077 307.478 341.289 307.921 342.306 307.447C343.324 306.972 343.763 305.76 343.287 304.739Z" fill="#05403D"/>
<path fill-rule="evenodd" clip-rule="evenodd" d="M327.293 312.197C326.817 311.176 325.606 310.733 324.588 311.208C323.57 311.682 323.131 312.895 323.607 313.916C324.083 314.936 325.294 315.38 326.312 314.905C327.33 314.43 327.769 313.218 327.293 312.197Z" fill="#05403D"/>
<path fill-rule="evenodd" clip-rule="evenodd" d="M311.299 319.655C310.823 318.634 309.611 318.192 308.594 318.666C307.576 319.141 307.136 320.353 307.612 321.374C308.088 322.395 309.3 322.838 310.318 322.363C311.335 321.889 311.775 320.676 311.299 319.655Z" fill="#05403D"/>
<path fill-rule="evenodd" clip-rule="evenodd" d="M295.304 327.113C294.828 326.092 293.617 325.65 292.599 326.124C291.581 326.599 291.142 327.811 291.618 328.832C292.094 329.853 293.305 330.296 294.323 329.821C295.341 329.347 295.78 328.134 295.304 327.113Z" fill="#05403D"/>
<path fill-rule="evenodd" clip-rule="evenodd" d="M279.31 334.572C278.834 333.551 277.623 333.108 276.605 333.583C275.587 334.057 275.148 335.27 275.624 336.291C276.1 337.311 277.311 337.755 278.329 337.28C279.347 336.805 279.786 335.593 279.31 334.572Z" fill="#05403D"/>
<path fill-rule="evenodd" clip-rule="evenodd" d="M263.316 342.03C262.839 341.009 261.628 340.566 260.61 341.041C259.592 341.515 259.153 342.728 259.629 343.749C260.105 344.769 261.317 345.213 262.334 344.738C263.352 344.263 263.792 343.051 263.316 342.03Z" fill="#05403D"/>
<path fill-rule="evenodd" clip-rule="evenodd" d="M247.321 349.489C246.845 348.468 245.634 348.025 244.616 348.5C243.598 348.974 243.159 350.187 243.635 351.208C244.111 352.228 245.322 352.671 246.34 352.197C247.358 351.722 247.797 350.51 247.321 349.489Z" fill="#05403D"/>
<path fill-rule="evenodd" clip-rule="evenodd" d="M231.327 356.946C230.851 355.925 229.639 355.482 228.622 355.957C227.604 356.432 227.164 357.644 227.64 358.665C228.116 359.686 229.328 360.129 230.346 359.654C231.364 359.18 231.803 357.967 231.327 356.946Z" fill="#05403D"/>
<path fill-rule="evenodd" clip-rule="evenodd" d="M215.332 364.405C214.856 363.384 213.645 362.941 212.627 363.416C211.609 363.891 211.17 365.103 211.646 366.124C212.122 367.145 213.333 367.588 214.351 367.113C215.369 366.639 215.808 365.426 215.332 364.405Z" fill="#05403D"/>
<path fill-rule="evenodd" clip-rule="evenodd" d="M199.338 371.863C198.862 370.842 197.651 370.4 196.633 370.874C195.615 371.349 195.176 372.561 195.652 373.582C196.128 374.603 197.339 375.046 198.357 374.571C199.375 374.097 199.814 372.884 199.338 371.863Z" fill="#05403D"/>
<path fill-rule="evenodd" clip-rule="evenodd" d="M183.344 379.322C182.868 378.301 181.656 377.858 180.638 378.333C179.621 378.807 179.181 380.02 179.657 381.041C180.133 382.061 181.345 382.505 182.363 382.03C183.38 381.555 183.82 380.343 183.344 379.322Z" fill="#05403D"/>
<path fill-rule="evenodd" clip-rule="evenodd" d="M169.873 385.603C169.397 384.582 168.186 384.139 167.168 384.613C166.15 385.088 165.711 386.3 166.187 387.321C166.663 388.342 167.874 388.785 168.892 388.311C169.91 387.836 170.349 386.623 169.873 385.603Z" fill="#05403D"/>
<path fill-rule="evenodd" clip-rule="evenodd" d="M156.403 391.884C155.927 390.863 154.716 390.42 153.698 390.895C152.68 391.369 152.241 392.582 152.717 393.603C153.193 394.623 154.404 395.067 155.422 394.592C156.44 394.117 156.879 392.905 156.403 391.884Z" fill="#05403D"/>
<g filter="url(#filter0_b_0_161)">
<path fill-rule="evenodd" clip-rule="evenodd" d="M368.773 312.428C391.814 295.125 406.248 270.331 406.248 242.792C406.248 190.496 354.201 148.102 289.999 148.102C225.797 148.102 173.75 190.496 173.75 242.792C173.75 295.088 225.797 337.482 289.999 337.482C305.596 337.482 320.476 334.98 334.066 330.442L369.661 349.061C377.503 353.163 385.936 344.669 381.777 336.857L368.773 312.428Z" fill="url(#paint0_radial_0_161)"/>
<circle cx="249.926" cy="250.271" r="11.9137" fill="#333333" fill-opacity="0.77"/>
<circle cx="297.58" cy="250.271" r="11.9137" fill="#333333" fill-opacity="0.77"/>
<circle cx="345.235" cy="250.271" r="11.9137" fill="#333333" fill-opacity="0.77"/>
</g>
<g filter="url(#filter1_b_0_161)">
<path fill-rule="evenodd" clip-rule="evenodd" d="M81 112C71.6112 112 64 119.611 64 129V256.015C64 265.404 71.6112 273.015 81 273.015H99.2229L95.6221 294.166C94.1367 302.891 104.816 308.295 110.966 301.93L138.91 273.015H288.162C297.551 273.015 305.162 265.404 305.162 256.015V129C305.162 119.611 297.551 112 288.162 112H81Z" fill="url(#paint1_diamond_0_161)"/>
<circle cx="137.287" cy="199.006" r="11.9137" fill="#333333" fill-opacity="0.77"/>
<circle cx="184.942" cy="199.006" r="11.9137" fill="#333333" fill-opacity="0.77"/>
<circle cx="232.597" cy="199.006" r="11.9137" fill="#333333" fill-opacity="0.77"/>
</g>
<defs>
<filter id="filter0_b_0_161" x="96.7503" y="71.1021" width="386.497" height="356.027" filterUnits="userSpaceOnUse" color-interpolation-filters="sRGB">
<feFlood flood-opacity="0" result="BackgroundImageFix"/>
<feGaussianBlur in="BackgroundImageFix" stdDeviation="38.5"/>
<feComposite in2="SourceAlpha" operator="in" result="effect1_backgroundBlur_0_161"/>
<feBlend mode="normal" in="SourceGraphic" in2="effect1_backgroundBlur_0_161" result="shape"/>
</filter>
<filter id="filter1_b_0_161" x="-13" y="35" width="395.162" height="346.709" filterUnits="userSpaceOnUse" color-interpolation-filters="sRGB">
<feFlood flood-opacity="0" result="BackgroundImageFix"/>
<feGaussianBlur in="BackgroundImageFix" stdDeviation="38.5"/>
<feComposite in2="SourceAlpha" operator="in" result="effect1_backgroundBlur_0_161"/>
<feBlend mode="normal" in="SourceGraphic" in2="effect1_backgroundBlur_0_161" result="shape"/>
</filter>
<radialGradient id="paint0_radial_0_161" cx="0" cy="0" r="1" gradientUnits="userSpaceOnUse" gradientTransform="translate(478.526 339.456) rotate(-166.351) scale(286.318 327.52)">
<stop stop-color="#CE6C47" stop-opacity="0.77"/>
<stop offset="1" stop-color="#05403D" stop-opacity="0.77"/>
</radialGradient>
<radialGradient id="paint1_diamond_0_161" cx="0" cy="0" r="1" gradientUnits="userSpaceOnUse" gradientTransform="translate(200.105 144.015) rotate(130.249) scale(210.65 258.069)">
<stop stop-color="#006064" stop-opacity="0.77"/>
<stop offset="1" stop-color="#05403D" stop-opacity="0.77"/>
</radialGradient>
</defs>
</svg>
