<svg width="77" height="37" viewBox="0 0 77 37" fill="none" xmlns="http://www.w3.org/2000/svg">
<g filter="url(#filter0_b_332_11)">
<rect width="77" height="37" rx="17" fill="black" fill-opacity="0.17"/>
</g>
<path d="M24.4217 25V13.882H31.1197V15.548H26.3937V18.387H30.3887V20.053H26.3937V23.334H31.2897V25H24.4217ZM33.5692 25V13.882H35.5922L39.0602 20.138L40.1992 22.501H40.2672C40.2219 21.9343 40.1652 21.3167 40.0972 20.648C40.0405 19.9793 40.0122 19.3333 40.0122 18.71V13.882H41.8992V25H39.8762L36.4082 18.744L35.2692 16.381H35.2012C35.2465 16.9703 35.2975 17.588 35.3542 18.234C35.4222 18.88 35.4562 19.5147 35.4562 20.138V25H33.5692ZM49.3835 25.204C48.3861 25.204 47.4908 24.983 46.6975 24.541C45.9041 24.099 45.2808 23.453 44.8275 22.603C44.3741 21.7417 44.1475 20.699 44.1475 19.475C44.1475 18.2623 44.3798 17.2253 44.8445 16.364C45.3091 15.4913 45.9381 14.8283 46.7315 14.375C47.5248 13.9103 48.4145 13.678 49.4005 13.678C50.1938 13.678 50.8625 13.8253 51.4065 14.12C51.9618 14.4033 52.4151 14.7263 52.7665 15.089L51.7125 16.364C51.4291 16.092 51.1118 15.8653 50.7605 15.684C50.4205 15.4913 49.9898 15.395 49.4685 15.395C48.4825 15.395 47.6835 15.7577 47.0715 16.483C46.4708 17.197 46.1705 18.1773 46.1705 19.424C46.1705 20.6933 46.4595 21.6907 47.0375 22.416C47.6155 23.13 48.4598 23.487 49.5705 23.487C49.8878 23.487 50.1881 23.4473 50.4715 23.368C50.7548 23.2773 50.9871 23.1527 51.1685 22.994V20.597H49.0605V18.982H52.9365V23.878C52.5625 24.252 52.0638 24.5693 51.4405 24.83C50.8285 25.0793 50.1428 25.204 49.3835 25.204Z" fill="white"/>
<defs>
<filter id="filter0_b_332_11" x="-17" y="-17" width="111" height="71" filterUnits="userSpaceOnUse" color-interpolation-filters="sRGB">
<feFlood flood-opacity="0" result="BackgroundImageFix"/>
<feGaussianBlur in="BackgroundImageFix" stdDeviation="8.5"/>
<feComposite in2="SourceAlpha" operator="in" result="effect1_backgroundBlur_332_11"/>
<feBlend mode="normal" in="SourceGraphic" in2="effect1_backgroundBlur_332_11" result="shape"/>
</filter>
</defs>
</svg>
