<svg width="45" height="45" viewBox="0 0 45 45" fill="none" xmlns="http://www.w3.org/2000/svg">
<circle cx="22.5" cy="22.5" r="21.5" stroke="white" stroke-width="2"/>
<path d="M34.0088 20.4517C34.0583 19.0203 33.7452 17.5997 33.0988 16.3217C32.6602 15.7973 32.0515 15.4434 31.3788 15.3217C28.5963 15.0692 25.8023 14.9657 23.0088 15.0117C20.2255 14.9636 17.4415 15.0638 14.6688 15.3117C14.1206 15.4114 13.6133 15.6685 13.2088 16.0517C12.3088 16.8817 12.2088 18.3017 12.1088 19.5017C11.9637 21.6592 11.9637 23.8241 12.1088 25.9817C12.1377 26.6571 12.2383 27.3275 12.4088 27.9817C12.5294 28.4867 12.7733 28.954 13.1188 29.3417C13.5261 29.7451 14.0452 30.0169 14.6088 30.1217C16.7647 30.3878 18.937 30.4981 21.1088 30.4517C24.6088 30.5017 27.6788 30.4517 31.3088 30.1717C31.8863 30.0733 32.42 29.8012 32.8388 29.3917C33.1188 29.1116 33.3279 28.7688 33.4488 28.3917C33.8064 27.2943 33.9821 26.1458 33.9688 24.9917C34.0088 24.4317 34.0088 21.0517 34.0088 20.4517ZM20.7488 25.5917V19.4017L26.6688 22.5117C25.0088 23.4317 22.8188 24.4717 20.7488 25.5917Z" fill="white"/>
</svg>
